<svg version="1.1" xmlns="http://www.w3.org/2000/svg" xmlns:xlink="http://www.w3.org/1999/xlink" width="229" height="225" viewBox="0 0 229 225"><defs><filter id="back-copy-26-fx" filterUnits="userSpaceOnUse"><feFlood flood-color="#061645" flood-opacity="0.270"/><feComposite operator="in" in2="SourceAlpha" /><feOffset dx="-2.99685274732728" dy="7.41747083653432"/><feGaussianBlur stdDeviation="5.9" result="blur" /><feComposite operator="out" in="blur" in2="SourceAlpha" result="maskedShadow"/><feComposite operator="over" in="maskedShadow" in2="SourceGraphic" result="dropShadow"/><feFlood flood-color="#061645" flood-opacity="0.270"/><feComposite operator="out" in2="SourceAlpha"/><feOffset dx="0" dy="0"/><feGaussianBlur stdDeviation="5.9" result="blur" /><feComposite operator="in" in="blur" in2="SourceAlpha" result="maskedShadow"/><feBlend mode="multiply" in="maskedShadow" in2="dropShadow" result="innerShadow"/></filter><filter id="Cow-Normal-fx" filterUnits="userSpaceOnUse"><feFlood flood-color="#F8F9CD" flood-opacity="0.310"/><feComposite operator="in" in2="SourceAlpha" /><feOffset dx="0.76323598150616" dy="3.92650873379064"/><feGaussianBlur stdDeviation="0.0" result="blur" /><feComposite operator="out" in="blur" in2="SourceAlpha" result="maskedShadow"/><feComposite operator="over" in="maskedShadow" in2="SourceGraphic" result="dropShadow"/><feFlood flood-color="#7E4700" flood-opacity="0.280"/><feComposite operator="out" in2="SourceAlpha"/><feOffset dx="0" dy="6"/><feGaussianBlur stdDeviation="1.5" result="blur" /><feComposite operator="in" in="blur" in2="SourceAlpha" result="maskedShadow"/><feBlend mode="multiply" in="maskedShadow" in2="dropShadow" result="innerShadow"/></filter></defs><g id=""><path id="back-copy-26" d="M209.580,40.250 C209.535,40.026 209.482,39.805 209.433,39.582 C209.377,39.344 209.330,39.102 209.274,38.864 C209.258,38.794 209.215,38.742 209.195,38.675 C206.181,26.868 196.452,17.675 184.190,15.274 C162.737,10.514 140.417,7.992 117.493,7.992 C94.625,7.992 72.363,10.514 50.957,15.253 C50.703,15.301 50.453,15.359 50.201,15.413 C49.935,15.473 49.666,15.523 49.401,15.583 C49.267,15.613 49.174,15.666 49.052,15.703 C37.233,18.707 28.028,28.054 25.504,39.840 C25.501,39.855 25.492,39.867 25.489,39.882 C20.588,60.990 17.997,82.958 17.997,105.520 C17.997,128.022 20.586,149.928 25.461,170.985 C25.466,171.009 25.472,171.034 25.477,171.059 C25.541,171.339 25.597,171.623 25.662,171.903 C25.692,172.028 25.752,172.132 25.790,172.251 C28.612,183.428 37.456,192.248 48.772,195.231 C48.898,195.269 49.002,195.322 49.138,195.353 C49.393,195.411 49.653,195.460 49.909,195.517 C50.313,195.608 50.715,195.700 51.125,195.776 C72.479,200.491 94.684,203.003 117.493,203.003 C140.325,203.003 162.553,200.492 183.927,195.769 C184.272,195.704 184.613,195.628 184.954,195.553 C185.007,195.541 185.062,195.531 185.116,195.518 C185.147,195.512 185.171,195.498 185.202,195.490 C196.975,192.794 206.253,183.818 209.189,172.351 C209.228,172.225 209.288,172.115 209.319,171.982 C209.382,171.716 209.435,171.446 209.496,171.180 C209.516,171.088 209.538,170.997 209.557,170.905 C214.419,149.873 217.004,127.994 217.004,105.520 C217.004,83.087 214.426,61.248 209.580,40.250 zM112.514,29.084 C112.514,25.911 114.505,23.199 117.328,22.066 C120.151,23.199 122.142,25.911 122.142,29.084 C122.142,32.258 120.151,34.970 117.328,36.102 C114.505,34.970 112.514,32.258 112.514,29.084 z" fill="#BF9762" fill-opacity="0.000" filter="url(#back-copy-26-fx)" /><path id="Shape-9-copy-5" d="M207.711,70.039 C205.890,52.699 202.397,33.735 188.838,22.750 C179.770,15.403 167.849,13.061 156.133,11.718 C156.133,11.718 154.860,11.934 154.860,11.934 C125.366,8.530 95.530,8.090 65.948,10.622 C51.550,11.855 36.103,14.306 25.823,24.447 C13.467,36.637 12.413,55.883 12.131,73.225 C11.839,91.232 11.547,109.239 11.255,127.246 C11.045,140.236 10.850,153.383 13.832,166.028 C16.813,178.672 23.354,190.967 34.111,198.273 C44.267,205.170 56.973,206.949 69.207,208.030 C101.536,210.885 134.181,210.158 166.350,205.866 C179.363,204.130 193.469,201.159 201.752,190.987 C208.889,182.224 209.986,170.151 210.467,158.865 C211.730,129.243 210.808,99.527 207.711,70.039 zM111.082,29.046 C108.080,29.046 105.647,26.616 105.647,23.618 C105.647,20.620 108.080,18.190 111.082,18.190 C114.084,18.190 116.518,20.620 116.518,23.618 C116.518,26.616 114.084,29.046 111.082,29.046 z" fill="#D2955A" /><path id="Shape-9-copy-4" d="M211.711,66.039 C209.890,48.699 206.397,29.735 192.838,18.750 C183.770,11.403 171.849,9.061 160.133,7.718 C160.133,7.718 158.860,7.934 158.860,7.934 C129.366,4.530 99.530,4.090 69.948,6.622 C55.550,7.855 40.103,10.306 29.823,20.447 C17.467,32.637 16.413,51.883 16.131,69.225 C15.839,87.232 15.547,105.239 15.255,123.246 C15.045,136.236 14.850,149.383 17.832,162.028 C20.813,174.672 27.354,186.967 38.111,194.273 C48.267,201.170 60.973,202.949 73.207,204.030 C105.536,206.885 138.181,206.158 170.350,201.866 C183.363,200.130 197.469,197.159 205.752,186.987 C212.889,178.224 213.986,166.151 214.467,154.865 C215.730,125.243 214.808,95.527 211.711,66.039 zM115.082,25.046 C112.080,25.046 109.647,22.616 109.647,19.618 C109.647,16.620 112.080,14.190 115.082,14.190 C118.084,14.190 120.518,16.620 120.518,19.618 C120.518,22.616 118.084,25.046 115.082,25.046 z" fill="#E5B26F" /><path id="Shape-10-copy-2" d="M28.578,124.511 C28.578,124.511 28.522,125.288 28.522,125.288 C27.597,125.227 26.667,125.161 25.742,125.082 C26.237,119.965 30.320,115.527 35.230,113.912 C40.346,112.222 46.087,113.270 50.828,115.827 C52.921,116.955 54.902,118.406 56.229,120.382 C57.373,122.090 57.976,124.230 57.626,126.238 C57.140,126.224 56.654,126.215 56.173,126.201 C56.173,126.201 56.210,124.731 56.210,124.731 C52.015,121.856 47.269,119.553 42.200,119.150 C37.136,118.748 31.713,120.499 28.578,124.511 zM128.007,106.932 C114.296,103.121 101.856,95.720 88.425,91.010 C65.245,82.878 39.262,83.435 16.250,91.937 C16.245,92.803 16.236,93.664 16.226,94.530 C32.409,88.234 51.226,88.871 66.871,96.459 C71.874,98.889 76.601,101.997 81.936,103.584 C86.991,105.092 92.830,105.382 96.521,109.165 C98.782,111.482 99.833,114.787 102.127,117.077 C104.173,119.122 107.004,120.157 109.765,121.014 C124.700,125.634 140.307,126.730 156.008,126.482 C156.008,126.482 156.027,127.746 156.027,127.746 C152.916,127.792 149.809,127.825 146.698,127.844 C127.797,127.952 108.896,127.493 90.004,127.029 C86.444,126.940 82.889,126.856 79.330,126.767 C79.330,126.767 79.376,124.824 79.376,124.824 C79.185,116.753 74.303,109.305 67.824,104.511 C61.344,99.722 53.426,97.278 45.508,95.808 C37.160,94.259 28.284,93.753 20.407,96.932 C18.936,97.527 17.525,98.238 16.184,99.048 C16.156,101.918 16.128,104.788 16.096,107.657 C18.917,105.200 22.136,103.201 25.611,101.805 C34.357,98.299 44.573,98.669 53.043,102.803 C61.321,106.847 68.169,115.742 66.366,124.796 C66.366,124.796 66.324,126.449 66.324,126.449 C65.338,126.425 64.357,126.402 63.376,126.379 C63.376,126.379 63.404,125.302 63.404,125.302 C63.320,122.736 62.330,120.279 60.998,118.088 C55.799,109.502 44.938,104.783 35.127,106.843 C26.480,108.664 19.197,115.635 16.689,124.075 C16.423,124.038 16.161,124.000 15.895,123.958 C15.801,131.023 15.694,138.087 15.572,145.151 C45.241,142.577 75.821,147.857 105.855,150.025 C141.888,152.625 178.002,150.653 214.118,148.096 C214.046,150.424 213.966,152.752 213.867,155.079 C213.703,158.928 213.461,162.865 212.942,166.734 C147.829,166.660 82.599,164.316 17.561,161.725 C16.535,157.222 15.899,152.657 15.520,148.059 C14.848,139.894 14.973,131.626 15.105,123.420 C15.397,105.391 15.688,87.361 15.979,69.331 C16.046,65.218 16.158,60.999 16.450,56.791 C16.453,55.902 16.458,55.013 16.460,54.125 C16.527,54.125 16.594,54.125 16.661,54.125 C80.948,54.143 145.234,54.159 209.521,54.175 C210.203,58.172 210.704,62.198 211.117,66.141 C211.475,69.562 211.801,72.987 212.100,76.414 C208.166,76.539 204.230,76.552 200.290,76.385 C186.532,75.804 172.947,73.117 159.227,71.933 C132.174,69.606 104.944,73.150 77.816,72.087 C72.406,71.872 66.978,71.479 61.545,71.025 C46.456,69.761 31.315,68.019 16.409,68.328 C16.404,69.864 16.394,71.399 16.385,72.935 C31.180,71.502 46.218,72.144 61.349,73.426 C64.586,73.698 67.828,74.002 71.070,74.325 C90.653,76.244 110.344,78.716 129.834,78.641 C144.115,78.590 158.503,77.157 172.606,79.414 C181.440,80.823 190.050,83.669 198.972,84.269 C203.572,84.580 208.139,84.286 212.692,83.687 C212.805,85.191 212.916,86.696 213.018,88.202 C210.445,88.656 207.867,89.075 205.279,89.428 C200.098,90.135 194.735,90.575 189.723,89.095 C185.261,87.775 181.351,85.013 176.955,83.496 C165.085,79.400 152.294,84.924 139.793,86.099 C126.493,87.344 113.310,83.590 100.295,80.566 C90.775,78.356 80.881,76.600 70.939,75.659 C52.127,73.871 33.161,74.985 16.334,81.371 C16.324,82.710 16.315,84.049 16.301,85.383 C39.140,76.923 64.717,75.781 88.079,82.747 C101.127,86.642 113.609,92.929 127.147,94.324 C140.765,95.724 154.411,92.054 168.098,92.157 C179.090,92.236 189.947,94.741 200.939,94.975 C205.119,95.064 209.270,94.821 213.403,94.361 C213.568,97.217 213.709,100.074 213.833,102.932 C213.377,102.994 212.920,103.052 212.464,103.116 C184.327,107.086 155.392,114.534 128.007,106.932 zM17.426,47.709 C17.855,44.906 18.417,42.150 19.151,39.476 C55.778,42.584 92.672,39.703 129.455,39.607 C155.257,39.543 181.062,40.862 206.857,42.505 C207.345,44.139 207.782,45.797 208.174,47.473 C191.838,46.130 175.514,44.619 159.134,44.120 C111.929,42.674 64.397,49.621 17.426,47.709 zM22.733,30.063 C24.104,27.371 25.759,24.839 27.758,22.519 C28.268,21.927 28.801,21.348 29.357,20.785 C29.453,20.688 29.543,20.587 29.640,20.491 C30.739,19.403 31.908,18.420 33.119,17.500 C58.051,20.415 83.785,19.070 109.434,18.408 C109.339,18.811 109.283,19.229 109.283,19.661 C109.283,21.391 110.093,22.929 111.350,23.924 C92.645,24.274 73.943,24.771 55.495,23.662 C55.495,23.662 55.467,24.125 55.467,24.125 C97.287,26.550 139.107,28.976 180.926,31.396 C188.289,31.822 195.661,32.246 203.037,32.616 C203.782,34.123 204.457,35.676 205.072,37.264 C193.814,36.766 182.559,36.181 171.303,35.633 C121.801,33.220 72.270,31.585 22.733,30.063 zM118.209,23.807 C119.383,22.810 120.130,21.324 120.130,19.661 C120.130,19.150 120.054,18.658 119.923,18.190 C128.399,18.064 136.852,18.085 145.250,18.437 C163.163,19.193 181.008,21.501 198.535,25.293 C199.329,26.339 200.076,27.421 200.771,28.538 C186.162,26.959 171.533,25.151 156.961,24.317 C144.113,23.583 131.167,23.608 118.209,23.807 zM121.612,7.071 C115.113,6.811 108.665,5.961 102.220,5.064 C116.011,4.899 129.810,5.382 143.557,6.506 C136.234,6.926 128.897,7.366 121.612,7.071 zM112.923,179.289 C127.236,179.925 141.550,180.937 155.873,181.180 C160.750,181.260 165.632,181.255 170.509,181.115 C183.786,180.733 197.007,179.361 210.241,178.183 C209.680,179.690 209.016,181.148 208.258,182.559 C190.812,182.521 173.343,182.171 155.877,181.812 C112.842,180.933 69.828,180.067 27.234,183.957 C26.082,182.354 25.023,180.677 24.053,178.941 C53.682,178.223 83.321,177.964 112.923,179.289 zM165.351,186.344 C178.835,186.320 192.321,186.298 205.805,186.399 C205.594,186.680 205.394,186.967 205.171,187.242 C203.524,189.272 201.638,191.005 199.583,192.509 C193.870,192.334 188.158,192.201 182.445,192.130 C144.194,191.657 105.915,193.511 67.889,197.678 C61.434,198.384 54.936,199.153 48.430,199.769 C44.726,198.459 41.184,196.768 37.909,194.537 C35.413,192.836 33.154,190.855 31.105,188.672 C54.825,186.571 78.777,186.515 102.617,186.466 C123.527,186.428 144.441,186.386 165.351,186.344 zM198.287,193.415 C194.385,196.000 189.929,197.811 185.253,199.142 C173.291,200.286 161.345,201.751 149.407,203.347 C144.358,204.022 139.310,204.721 134.264,205.428 C125.226,205.894 116.175,206.076 107.126,205.983 C121.163,204.761 135.163,203.147 149.127,201.231 C165.564,198.978 181.946,196.311 198.287,193.415 z" fill="#E8B676" /><path id="rope-copy-11" d="M117.935,14.226 C117.612,15.545 117.238,16.924 116.538,18.021 C116.320,18.361 115.972,18.829 115.453,18.964 C115.369,18.985 115.284,18.996 115.198,18.996 C114.908,18.996 114.619,18.875 114.401,18.654 C114.222,18.472 114.120,18.242 114.084,17.998 C113.968,18.282 113.800,18.568 113.521,18.754 C113.368,18.857 113.188,18.909 113.000,18.909 C112.870,18.909 112.735,18.883 112.603,18.833 C112.166,18.665 111.791,18.248 111.669,17.794 C111.669,17.794 112.718,17.501 112.718,17.501 C112.734,17.462 112.781,17.355 112.833,17.145 C113.089,16.098 113.008,14.810 112.902,13.581 C112.680,11.000 112.345,8.302 111.402,6.058 C111.189,5.551 111.051,5.401 111.020,5.379 C111.020,5.379 109.996,5.391 109.996,5.391 C109.995,4.887 110.246,4.377 110.633,4.143 C110.980,3.933 111.397,3.927 111.750,4.125 C112.239,4.400 112.526,4.962 112.741,5.475 C113.765,7.911 114.121,10.748 114.353,13.452 C114.469,14.806 114.557,16.235 114.246,17.503 C114.242,17.519 114.235,17.538 114.231,17.555 C114.231,17.555 114.868,17.699 114.868,17.699 C114.969,17.599 115.208,17.383 115.316,17.214 C115.893,16.309 116.228,15.064 116.521,13.867 C117.138,11.352 117.685,8.689 117.511,6.258 C117.471,5.707 117.395,5.565 117.373,5.535 C117.373,5.535 117.267,5.356 117.267,5.356 C117.267,5.356 116.397,5.321 116.397,5.321 C116.410,4.821 116.698,4.405 117.148,4.236 C117.613,4.062 118.139,4.185 118.458,4.545 C118.832,4.968 118.923,5.594 118.963,6.150 C119.152,8.790 118.581,11.592 117.935,14.226 z" fill="#F4D09E" /><path id="Cow-Normal" d="M191.727,80.626 C191.712,80.666 190.881,82.729 189.520,85.704 C188.158,88.679 186.272,92.560 184.111,96.273 C182.666,98.750 181.107,101.150 179.428,103.203 C178.465,104.377 177.465,105.441 176.358,106.349 C175.766,106.832 175.141,107.272 174.456,107.648 C171.695,109.161 168.687,109.887 165.736,109.886 C164.013,109.886 162.307,109.639 160.667,109.164 C160.379,113.914 159.503,118.857 158.056,123.741 C156.740,128.174 154.951,132.558 152.684,136.688 C152.752,136.839 152.822,136.990 152.887,137.143 C154.034,139.846 154.671,142.823 154.671,145.925 C154.671,145.958 154.671,145.998 154.670,146.044 C154.670,146.044 154.670,146.045 154.670,146.045 C154.647,150.696 153.211,155.043 150.778,158.628 C148.344,162.215 144.915,165.060 140.875,166.769 C138.182,167.908 135.217,168.537 132.125,168.537 C128.336,168.538 124.741,167.593 121.600,165.926 C119.853,164.999 117.929,164.535 116.000,164.535 C114.072,164.535 112.147,164.999 110.400,165.926 C107.259,167.593 103.664,168.538 99.876,168.537 C95.234,168.538 90.890,167.119 87.303,164.696 C83.713,162.273 80.860,158.848 79.137,154.806 C77.988,152.112 77.346,149.144 77.330,146.045 C77.330,146.045 77.330,146.061 77.330,146.061 C77.330,146.003 77.330,145.958 77.330,145.924 C77.329,142.642 78.045,139.508 79.318,136.682 C77.101,132.642 75.337,128.363 74.030,124.029 C72.532,119.052 71.626,114.008 71.333,109.164 C69.693,109.639 67.987,109.886 66.264,109.886 C63.313,109.887 60.305,109.162 57.544,107.648 C56.774,107.225 56.079,106.722 55.422,106.165 C54.766,105.608 54.148,104.996 53.550,104.339 C52.356,103.024 51.238,101.529 50.166,99.931 C48.028,96.736 46.079,93.123 44.467,89.876 C43.394,87.713 42.475,85.716 41.773,84.135 C40.837,82.028 40.286,80.658 40.273,80.626 C39.858,79.594 39.925,78.439 40.456,77.463 C40.988,76.486 41.920,75.805 43.010,75.598 C43.045,75.591 44.592,75.296 47.003,74.928 C49.416,74.561 52.690,74.120 56.197,73.824 C58.536,73.626 60.978,73.492 63.356,73.492 C64.960,73.492 66.536,73.552 68.044,73.704 C69.074,73.808 70.070,73.957 71.035,74.164 C70.864,73.256 70.781,72.336 70.781,71.419 C70.781,69.703 71.057,67.988 71.551,66.312 C72.046,64.637 72.761,62.998 73.667,61.430 C75.481,58.298 78.055,55.437 81.267,53.232 C83.407,51.766 85.836,50.596 88.496,49.880 C89.861,49.512 91.328,49.965 92.252,51.039 C93.176,52.113 93.406,53.634 92.843,54.936 C92.166,56.506 91.859,58.042 91.858,59.599 C91.858,60.981 92.105,62.385 92.612,63.820 C93.120,65.254 93.891,66.717 94.934,68.172 C95.450,68.892 96.033,69.610 96.682,70.320 C97.259,70.291 97.834,70.272 98.402,70.272 C102.862,70.275 107.005,71.099 110.302,72.011 C112.177,72.531 114.089,72.789 116.000,72.789 C117.912,72.789 119.823,72.531 121.698,72.011 C124.995,71.099 129.138,70.275 133.598,70.272 C134.166,70.272 134.740,70.288 135.317,70.317 C135.528,70.086 135.736,69.854 135.933,69.621 C137.156,68.178 138.108,66.711 138.792,65.262 C139.704,63.327 140.141,61.440 140.142,59.599 C140.140,58.043 139.833,56.506 139.156,54.935 C138.594,53.634 138.825,52.113 139.749,51.039 C140.673,49.964 142.139,49.512 143.505,49.880 C147.496,50.955 150.958,53.044 153.728,55.641 C156.499,58.245 158.601,61.358 159.881,64.650 C160.731,66.846 161.217,69.130 161.219,71.419 C161.219,72.336 161.139,73.253 160.969,74.158 C161.460,74.054 161.960,73.964 162.468,73.888 C164.419,73.598 166.504,73.493 168.644,73.492 C171.022,73.492 173.464,73.626 175.803,73.824 C178.142,74.021 180.376,74.284 182.321,74.545 C186.209,75.068 188.944,75.589 188.990,75.598 C190.080,75.805 191.013,76.486 191.544,77.463 C192.076,78.439 192.142,79.595 191.727,80.626 zM84.721,145.989 C84.721,145.989 84.721,146.005 84.721,146.005 C84.739,149.151 85.697,152.041 87.334,154.458 C88.971,156.873 91.288,158.794 93.996,159.937 C95.802,160.700 97.780,161.123 99.876,161.123 C102.442,161.122 104.834,160.490 106.946,159.372 C109.776,157.871 112.890,157.121 116.000,157.122 C119.110,157.121 122.224,157.871 125.054,159.372 C127.166,160.490 129.558,161.122 132.125,161.123 C135.266,161.121 138.153,160.175 140.571,158.545 C142.987,156.915 144.913,154.600 146.067,151.891 C146.837,150.085 147.267,148.104 147.279,146.005 C147.279,145.984 147.279,145.958 147.279,145.925 C147.278,142.800 146.325,139.900 144.682,137.462 C143.039,135.027 140.704,133.080 137.993,131.922 C136.183,131.149 134.209,130.723 132.128,130.722 C132.128,130.722 132.121,130.722 132.121,130.722 C129.530,130.723 127.116,131.368 124.990,132.507 C122.185,134.012 119.090,134.761 116.000,134.761 C112.910,134.761 109.815,134.012 107.010,132.507 C104.883,131.368 102.468,130.723 99.875,130.722 C99.875,130.722 99.875,130.722 99.874,130.722 C99.874,130.722 99.874,130.722 99.873,130.722 C99.873,130.722 99.873,130.722 99.873,130.722 C96.753,130.724 93.862,131.682 91.433,133.332 C89.007,134.981 87.068,137.325 85.915,140.045 C85.146,141.860 84.721,143.839 84.721,145.924 C84.721,145.958 84.721,145.979 84.721,145.989 zM71.469,82.062 C71.469,82.062 73.081,79.101 73.081,79.101 C73.081,79.101 71.469,82.062 71.469,82.062 C71.227,81.928 70.831,81.761 70.315,81.613 C69.798,81.463 69.163,81.328 68.445,81.221 C67.006,81.005 65.242,80.905 63.356,80.906 C61.290,80.905 59.074,81.022 56.920,81.202 C54.766,81.382 52.673,81.625 50.836,81.869 C50.180,81.957 49.560,82.044 48.978,82.129 C49.050,82.287 49.123,82.448 49.198,82.612 C50.492,85.442 52.296,89.143 54.272,92.533 C55.585,94.790 56.982,96.911 58.284,98.498 C59.024,99.404 59.735,100.132 60.314,100.603 C60.622,100.856 60.889,101.034 61.085,101.141 C62.745,102.048 64.510,102.471 66.264,102.472 C68.039,102.473 69.794,102.027 71.359,101.196 C71.583,97.392 72.093,94.003 72.861,90.981 C73.412,88.812 74.101,86.834 74.910,85.032 C74.014,83.846 72.866,82.828 71.469,82.062 zM86.528,68.435 C85.272,65.779 84.551,62.948 84.480,60.067 C84.080,60.383 83.690,60.710 83.320,61.057 C81.348,62.902 79.849,65.155 79.007,67.338 C78.442,68.791 78.170,70.204 78.172,71.419 C78.172,72.196 78.279,72.891 78.472,73.496 C78.666,74.102 78.941,74.620 79.314,75.088 C79.564,75.401 79.861,75.692 80.228,75.969 C80.464,76.146 80.669,76.347 80.849,76.564 C81.190,76.250 81.535,75.946 81.887,75.658 C83.957,73.965 86.219,72.745 88.524,71.906 C87.761,70.783 87.090,69.626 86.528,68.435 zM140.752,78.798 C138.513,78.013 136.065,77.684 133.598,77.685 C130.062,77.682 126.514,78.364 123.668,79.156 C121.155,79.853 118.577,80.203 116.000,80.203 C113.423,80.203 110.846,79.853 108.332,79.156 C105.486,78.364 101.938,77.682 98.402,77.685 C96.322,77.685 94.251,77.918 92.313,78.463 C90.371,79.010 88.565,79.857 86.920,81.117 C85.822,81.960 84.792,82.989 83.839,84.276 C82.570,85.992 81.436,88.173 80.545,90.979 C79.358,94.717 78.617,99.568 78.618,105.753 C78.616,110.724 79.424,116.222 81.029,121.627 C81.851,124.402 82.886,127.152 84.118,129.800 C86.122,127.829 88.486,126.224 91.110,125.102 C93.753,123.971 96.662,123.337 99.693,123.313 C99.733,123.311 99.769,123.310 99.798,123.309 C99.891,123.307 99.929,123.309 99.930,123.309 C99.930,123.309 99.930,123.309 99.930,123.309 C103.737,123.317 107.347,124.279 110.496,125.970 C112.203,126.887 114.100,127.348 116.000,127.348 C117.900,127.348 119.796,126.887 121.503,125.970 C124.668,124.271 128.298,123.307 132.125,123.308 C132.127,123.308 132.128,123.308 132.130,123.308 C132.130,123.308 132.130,123.308 132.130,123.308 C132.133,123.308 132.136,123.308 132.140,123.308 C132.195,123.309 132.235,123.310 132.266,123.311 C136.860,123.339 141.161,124.776 144.716,127.196 C145.850,127.968 146.909,128.839 147.884,129.798 C149.076,127.232 150.085,124.571 150.895,121.884 C152.550,116.396 153.384,110.803 153.382,105.753 C153.383,100.535 152.856,96.265 151.978,92.814 C151.099,89.360 149.876,86.732 148.476,84.715 C147.541,83.369 146.526,82.290 145.444,81.405 C144.001,80.227 142.434,79.388 140.752,78.798 zM153.362,68.417 C153.047,67.349 152.568,66.237 151.939,65.149 C150.865,63.287 149.347,61.506 147.523,60.065 C147.471,62.187 147.067,64.284 146.353,66.300 C145.663,68.249 144.689,70.123 143.478,71.907 C145.583,72.675 147.650,73.754 149.570,75.228 C150.110,75.642 150.636,76.089 151.150,76.565 C151.331,76.347 151.536,76.146 151.771,75.969 C152.139,75.693 152.436,75.401 152.686,75.088 C152.935,74.776 153.139,74.442 153.306,74.074 C153.638,73.342 153.827,72.457 153.828,71.419 C153.829,70.507 153.677,69.486 153.362,68.417 zM175.182,81.211 C172.997,81.026 170.743,80.905 168.644,80.906 C167.229,80.905 165.884,80.961 164.692,81.081 C163.500,81.199 162.461,81.387 161.686,81.613 C161.169,81.761 160.773,81.928 160.531,82.061 C160.531,82.061 158.918,79.098 158.918,79.098 C158.918,79.098 160.531,82.062 160.531,82.062 C159.135,82.827 157.988,83.844 157.093,85.028 C157.614,86.188 158.084,87.422 158.499,88.731 C159.627,92.294 160.360,96.417 160.642,101.196 C162.206,102.027 163.961,102.473 165.736,102.472 C167.490,102.471 169.256,102.048 170.915,101.141 C171.134,101.022 171.444,100.812 171.800,100.510 C172.155,100.208 172.557,99.817 172.980,99.353 C173.828,98.424 174.755,97.204 175.678,95.828 C177.528,93.073 179.362,89.703 180.880,86.645 C181.694,85.007 182.419,83.459 183.022,82.129 C180.835,81.809 178.067,81.455 175.182,81.211 zM138.120,109.871 C137.239,110.462 136.259,110.934 135.196,111.215 C134.488,111.403 133.746,111.503 132.998,111.503 C132.243,111.503 131.494,111.401 130.780,111.210 C130.066,111.019 129.387,110.742 128.753,110.401 C127.484,109.716 126.395,108.790 125.430,107.718 C124.063,106.198 124.184,103.854 125.700,102.483 C127.215,101.112 129.552,101.233 130.919,102.753 C131.307,103.185 131.667,103.495 131.967,103.697 C132.269,103.901 132.504,103.999 132.681,104.046 C132.801,104.077 132.898,104.089 132.998,104.089 C133.097,104.089 133.193,104.077 133.311,104.047 C133.428,104.016 133.568,103.963 133.739,103.873 C134.077,103.694 134.537,103.349 135.048,102.785 C136.423,101.272 138.760,101.162 140.269,102.541 C141.777,103.920 141.886,106.264 140.512,107.778 C139.791,108.571 139.002,109.280 138.120,109.871 zM104.166,109.531 C103.285,110.121 102.305,110.594 101.241,110.875 C100.534,111.063 99.791,111.163 99.043,111.163 C98.288,111.163 97.540,111.060 96.826,110.870 C96.112,110.679 95.433,110.401 94.799,110.060 C93.530,109.375 92.441,108.450 91.476,107.378 C90.109,105.858 90.230,103.514 91.745,102.143 C93.261,100.772 95.598,100.893 96.965,102.413 C97.353,102.845 97.713,103.154 98.013,103.357 C98.315,103.561 98.550,103.658 98.727,103.705 C98.847,103.737 98.943,103.748 99.043,103.749 C99.143,103.748 99.239,103.737 99.356,103.706 C99.474,103.675 99.614,103.623 99.784,103.532 C100.123,103.354 100.583,103.008 101.094,102.444 C102.469,100.931 104.806,100.822 106.315,102.201 C107.823,103.579 107.932,105.924 106.558,107.437 C105.837,108.230 105.048,108.939 104.166,109.531 zM105.783,143.943 C107.407,145.394 107.551,147.891 106.104,149.519 C104.657,151.148 102.169,151.292 100.545,149.841 C98.921,148.390 98.777,145.893 100.224,144.265 C101.671,142.636 104.160,142.492 105.783,143.943 zM133.519,143.943 C135.143,145.394 135.287,147.891 133.840,149.519 C132.393,151.148 129.905,151.292 128.281,149.841 C126.657,148.390 126.513,145.893 127.960,144.265 C129.407,142.636 131.895,142.492 133.519,143.943 z" fill="#795A3E" filter="url(#Cow-Normal-fx)" /></g></svg>