<svg version="1.1" xmlns="http://www.w3.org/2000/svg" xmlns:xlink="http://www.w3.org/1999/xlink" width="229" height="225" viewBox="0 0 229 225"><defs><filter id="back-copy-26-fx" filterUnits="userSpaceOnUse"><feFlood flood-color="#061645" flood-opacity="0.270"/><feComposite operator="in" in2="SourceAlpha" /><feOffset dx="-2.99685274732728" dy="7.41747083653432"/><feGaussianBlur stdDeviation="5.9" result="blur" /><feComposite operator="out" in="blur" in2="SourceAlpha" result="maskedShadow"/><feComposite operator="over" in="maskedShadow" in2="SourceGraphic" result="dropShadow"/><feFlood flood-color="#061645" flood-opacity="0.270"/><feComposite operator="out" in2="SourceAlpha"/><feOffset dx="0" dy="0"/><feGaussianBlur stdDeviation="5.9" result="blur" /><feComposite operator="in" in="blur" in2="SourceAlpha" result="maskedShadow"/><feBlend mode="multiply" in="maskedShadow" in2="dropShadow" result="innerShadow"/></filter><filter id="MorningBirdsong--fx" filterUnits="userSpaceOnUse"><feFlood flood-color="#F8F9CD" flood-opacity="0.310"/><feComposite operator="in" in2="SourceAlpha" /><feOffset dx="0.76323598150616" dy="3.92650873379064"/><feGaussianBlur stdDeviation="0.0" result="blur" /><feComposite operator="out" in="blur" in2="SourceAlpha" result="maskedShadow"/><feComposite operator="over" in="maskedShadow" in2="SourceGraphic" result="dropShadow"/><feFlood flood-color="#7E4700" flood-opacity="0.280"/><feComposite operator="out" in2="SourceAlpha"/><feOffset dx="0" dy="6"/><feGaussianBlur stdDeviation="1.5" result="blur" /><feComposite operator="in" in="blur" in2="SourceAlpha" result="maskedShadow"/><feBlend mode="multiply" in="maskedShadow" in2="dropShadow" result="innerShadow"/></filter></defs><g id=""><path id="back-copy-26" d="M209.580,40.250 C209.535,40.026 209.482,39.805 209.433,39.582 C209.377,39.344 209.330,39.102 209.274,38.864 C209.258,38.794 209.215,38.742 209.195,38.675 C206.181,26.868 196.452,17.675 184.190,15.274 C162.737,10.514 140.417,7.992 117.493,7.992 C94.625,7.992 72.363,10.514 50.957,15.253 C50.703,15.301 50.453,15.359 50.201,15.413 C49.935,15.473 49.666,15.523 49.401,15.583 C49.267,15.613 49.174,15.666 49.052,15.703 C37.233,18.707 28.028,28.054 25.504,39.840 C25.501,39.855 25.492,39.867 25.489,39.882 C20.588,60.990 17.997,82.958 17.997,105.520 C17.997,128.022 20.586,149.928 25.461,170.985 C25.466,171.009 25.472,171.034 25.477,171.059 C25.541,171.339 25.597,171.623 25.662,171.903 C25.692,172.028 25.752,172.132 25.790,172.251 C28.612,183.428 37.456,192.248 48.772,195.231 C48.898,195.269 49.002,195.322 49.138,195.353 C49.393,195.411 49.653,195.460 49.909,195.517 C50.313,195.608 50.715,195.700 51.125,195.776 C72.479,200.491 94.684,203.003 117.493,203.003 C140.325,203.003 162.553,200.492 183.927,195.769 C184.272,195.704 184.613,195.628 184.954,195.553 C185.007,195.541 185.062,195.531 185.116,195.518 C185.147,195.512 185.171,195.498 185.202,195.490 C196.975,192.794 206.253,183.818 209.189,172.351 C209.228,172.225 209.288,172.115 209.319,171.982 C209.382,171.716 209.435,171.446 209.496,171.180 C209.516,171.088 209.538,170.997 209.557,170.905 C214.419,149.873 217.004,127.994 217.004,105.520 C217.004,83.087 214.426,61.248 209.580,40.250 zM112.514,29.084 C112.514,25.911 114.505,23.199 117.328,22.066 C120.151,23.199 122.142,25.911 122.142,29.084 C122.142,32.258 120.151,34.970 117.328,36.102 C114.505,34.970 112.514,32.258 112.514,29.084 z" fill="#BF9762" fill-opacity="0.000" filter="url(#back-copy-26-fx)" /><path id="Shape-9-copy-5" d="M207.711,70.039 C205.890,52.699 202.397,33.735 188.838,22.750 C179.770,15.403 167.849,13.061 156.133,11.718 C156.133,11.718 154.860,11.934 154.860,11.934 C125.366,8.530 95.530,8.090 65.948,10.622 C51.550,11.855 36.103,14.306 25.823,24.447 C13.467,36.637 12.413,55.883 12.131,73.225 C11.839,91.232 11.547,109.239 11.255,127.246 C11.045,140.236 10.850,153.383 13.832,166.028 C16.813,178.672 23.354,190.967 34.111,198.273 C44.267,205.170 56.973,206.949 69.207,208.030 C101.536,210.885 134.181,210.158 166.350,205.866 C179.363,204.130 193.469,201.159 201.752,190.987 C208.889,182.224 209.986,170.151 210.467,158.865 C211.730,129.243 210.808,99.527 207.711,70.039 zM111.082,29.046 C108.080,29.046 105.647,26.616 105.647,23.618 C105.647,20.620 108.080,18.190 111.082,18.190 C114.084,18.190 116.518,20.620 116.518,23.618 C116.518,26.616 114.084,29.046 111.082,29.046 z" fill="#D2955A" /><path id="Shape-9-copy-4" d="M211.711,66.039 C209.890,48.699 206.397,29.735 192.838,18.750 C183.770,11.403 171.849,9.061 160.133,7.718 C160.133,7.718 158.860,7.934 158.860,7.934 C129.366,4.530 99.530,4.090 69.948,6.622 C55.550,7.855 40.103,10.306 29.823,20.447 C17.467,32.637 16.413,51.883 16.131,69.225 C15.839,87.232 15.547,105.239 15.255,123.246 C15.045,136.236 14.850,149.383 17.832,162.028 C20.813,174.672 27.354,186.967 38.111,194.273 C48.267,201.170 60.973,202.949 73.207,204.030 C105.536,206.885 138.181,206.158 170.350,201.866 C183.363,200.130 197.469,197.159 205.752,186.987 C212.889,178.224 213.986,166.151 214.467,154.865 C215.730,125.243 214.808,95.527 211.711,66.039 zM115.082,25.046 C112.080,25.046 109.647,22.616 109.647,19.618 C109.647,16.620 112.080,14.190 115.082,14.190 C118.084,14.190 120.518,16.620 120.518,19.618 C120.518,22.616 118.084,25.046 115.082,25.046 z" fill="#E5B26F" /><path id="Shape-10-copy-2" d="M28.578,124.511 C28.578,124.511 28.522,125.288 28.522,125.288 C27.597,125.227 26.667,125.161 25.742,125.082 C26.237,119.965 30.320,115.527 35.230,113.912 C40.346,112.222 46.087,113.270 50.828,115.827 C52.921,116.955 54.902,118.406 56.229,120.382 C57.373,122.090 57.976,124.230 57.626,126.238 C57.140,126.224 56.654,126.215 56.173,126.201 C56.173,126.201 56.210,124.731 56.210,124.731 C52.015,121.856 47.269,119.553 42.200,119.150 C37.136,118.748 31.713,120.499 28.578,124.511 zM128.007,106.932 C114.296,103.121 101.856,95.720 88.425,91.010 C65.245,82.878 39.262,83.435 16.250,91.937 C16.245,92.803 16.236,93.664 16.226,94.530 C32.409,88.234 51.226,88.871 66.871,96.459 C71.874,98.889 76.601,101.997 81.936,103.584 C86.991,105.092 92.830,105.382 96.521,109.165 C98.782,111.482 99.833,114.787 102.127,117.077 C104.173,119.122 107.004,120.157 109.765,121.014 C124.700,125.634 140.307,126.730 156.008,126.482 C156.008,126.482 156.027,127.746 156.027,127.746 C152.916,127.792 149.809,127.825 146.698,127.844 C127.797,127.952 108.896,127.493 90.004,127.029 C86.444,126.940 82.889,126.856 79.330,126.767 C79.330,126.767 79.376,124.824 79.376,124.824 C79.185,116.753 74.303,109.305 67.824,104.511 C61.344,99.722 53.426,97.278 45.508,95.808 C37.160,94.259 28.284,93.753 20.407,96.932 C18.936,97.527 17.525,98.238 16.184,99.048 C16.156,101.918 16.128,104.788 16.096,107.657 C18.917,105.200 22.136,103.201 25.611,101.805 C34.357,98.299 44.573,98.669 53.043,102.803 C61.321,106.847 68.169,115.742 66.366,124.796 C66.366,124.796 66.324,126.449 66.324,126.449 C65.338,126.425 64.357,126.402 63.376,126.379 C63.376,126.379 63.404,125.302 63.404,125.302 C63.320,122.736 62.330,120.279 60.998,118.088 C55.799,109.502 44.938,104.783 35.127,106.843 C26.480,108.664 19.197,115.635 16.689,124.075 C16.423,124.038 16.161,124.000 15.895,123.958 C15.801,131.023 15.694,138.087 15.572,145.151 C45.241,142.577 75.821,147.857 105.855,150.025 C141.888,152.625 178.002,150.653 214.118,148.096 C214.046,150.424 213.966,152.752 213.867,155.079 C213.703,158.928 213.461,162.865 212.942,166.734 C147.829,166.660 82.599,164.316 17.561,161.725 C16.535,157.222 15.899,152.657 15.520,148.059 C14.848,139.894 14.973,131.626 15.105,123.420 C15.397,105.391 15.688,87.361 15.979,69.331 C16.046,65.218 16.158,60.999 16.450,56.791 C16.453,55.902 16.458,55.013 16.460,54.125 C16.527,54.125 16.594,54.125 16.661,54.125 C80.948,54.143 145.234,54.159 209.521,54.175 C210.203,58.172 210.704,62.198 211.117,66.141 C211.475,69.562 211.801,72.987 212.100,76.414 C208.166,76.539 204.230,76.552 200.290,76.385 C186.532,75.804 172.947,73.117 159.227,71.933 C132.174,69.606 104.944,73.150 77.816,72.087 C72.406,71.872 66.978,71.479 61.545,71.025 C46.456,69.761 31.315,68.019 16.409,68.328 C16.404,69.864 16.394,71.399 16.385,72.935 C31.180,71.502 46.218,72.144 61.349,73.426 C64.586,73.698 67.828,74.002 71.070,74.325 C90.653,76.244 110.344,78.716 129.834,78.641 C144.115,78.590 158.503,77.157 172.606,79.414 C181.440,80.823 190.050,83.669 198.972,84.269 C203.572,84.580 208.139,84.286 212.692,83.687 C212.805,85.191 212.916,86.696 213.018,88.202 C210.445,88.656 207.867,89.075 205.279,89.428 C200.098,90.135 194.735,90.575 189.723,89.095 C185.261,87.775 181.351,85.013 176.955,83.496 C165.085,79.400 152.294,84.924 139.793,86.099 C126.493,87.344 113.310,83.590 100.295,80.566 C90.775,78.356 80.881,76.600 70.939,75.659 C52.127,73.871 33.161,74.985 16.334,81.371 C16.324,82.710 16.315,84.049 16.301,85.383 C39.140,76.923 64.717,75.781 88.079,82.747 C101.127,86.642 113.609,92.929 127.147,94.324 C140.765,95.724 154.411,92.054 168.098,92.157 C179.090,92.236 189.947,94.741 200.939,94.975 C205.119,95.064 209.270,94.821 213.403,94.361 C213.568,97.217 213.709,100.074 213.833,102.932 C213.377,102.994 212.920,103.052 212.464,103.116 C184.327,107.086 155.392,114.534 128.007,106.932 zM17.426,47.709 C17.855,44.906 18.417,42.150 19.151,39.476 C55.778,42.584 92.672,39.703 129.455,39.607 C155.257,39.543 181.062,40.862 206.857,42.505 C207.345,44.139 207.782,45.797 208.174,47.473 C191.838,46.130 175.514,44.619 159.134,44.120 C111.929,42.674 64.397,49.621 17.426,47.709 zM22.733,30.063 C24.104,27.371 25.759,24.839 27.758,22.519 C28.268,21.927 28.801,21.348 29.357,20.785 C29.453,20.688 29.543,20.587 29.640,20.491 C30.739,19.403 31.908,18.420 33.119,17.500 C58.051,20.415 83.785,19.070 109.434,18.408 C109.339,18.811 109.283,19.229 109.283,19.661 C109.283,21.391 110.093,22.929 111.350,23.924 C92.645,24.274 73.943,24.771 55.495,23.662 C55.495,23.662 55.467,24.125 55.467,24.125 C97.287,26.550 139.107,28.976 180.926,31.396 C188.289,31.822 195.661,32.246 203.037,32.616 C203.782,34.123 204.457,35.676 205.072,37.264 C193.814,36.766 182.559,36.181 171.303,35.633 C121.801,33.220 72.270,31.585 22.733,30.063 zM118.209,23.807 C119.383,22.810 120.130,21.324 120.130,19.661 C120.130,19.150 120.054,18.658 119.923,18.190 C128.399,18.064 136.852,18.085 145.250,18.437 C163.163,19.193 181.008,21.501 198.535,25.293 C199.329,26.339 200.076,27.421 200.771,28.538 C186.162,26.959 171.533,25.151 156.961,24.317 C144.113,23.583 131.167,23.608 118.209,23.807 zM121.612,7.071 C115.113,6.811 108.665,5.961 102.220,5.064 C116.011,4.899 129.810,5.382 143.557,6.506 C136.234,6.926 128.897,7.366 121.612,7.071 zM112.923,179.289 C127.236,179.925 141.550,180.937 155.873,181.180 C160.750,181.260 165.632,181.255 170.509,181.115 C183.786,180.733 197.007,179.361 210.241,178.183 C209.680,179.690 209.016,181.148 208.258,182.559 C190.812,182.521 173.343,182.171 155.877,181.812 C112.842,180.933 69.828,180.067 27.234,183.957 C26.082,182.354 25.023,180.677 24.053,178.941 C53.682,178.223 83.321,177.964 112.923,179.289 zM165.351,186.344 C178.835,186.320 192.321,186.298 205.805,186.399 C205.594,186.680 205.394,186.967 205.171,187.242 C203.524,189.272 201.638,191.005 199.583,192.509 C193.870,192.334 188.158,192.201 182.445,192.130 C144.194,191.657 105.915,193.511 67.889,197.678 C61.434,198.384 54.936,199.153 48.430,199.769 C44.726,198.459 41.184,196.768 37.909,194.537 C35.413,192.836 33.154,190.855 31.105,188.672 C54.825,186.571 78.777,186.515 102.617,186.466 C123.527,186.428 144.441,186.386 165.351,186.344 zM198.287,193.415 C194.385,196.000 189.929,197.811 185.253,199.142 C173.291,200.286 161.345,201.751 149.407,203.347 C144.358,204.022 139.310,204.721 134.264,205.428 C125.226,205.894 116.175,206.076 107.126,205.983 C121.163,204.761 135.163,203.147 149.127,201.231 C165.564,198.978 181.946,196.311 198.287,193.415 z" fill="#E8B676" /><path id="rope-copy-11" d="M117.935,14.226 C117.612,15.545 117.238,16.924 116.538,18.021 C116.320,18.361 115.972,18.829 115.453,18.964 C115.369,18.985 115.284,18.996 115.198,18.996 C114.908,18.996 114.619,18.875 114.401,18.654 C114.222,18.472 114.120,18.242 114.084,17.998 C113.968,18.282 113.800,18.568 113.521,18.754 C113.368,18.857 113.188,18.909 113.000,18.909 C112.870,18.909 112.735,18.883 112.603,18.833 C112.166,18.665 111.791,18.248 111.669,17.794 C111.669,17.794 112.718,17.501 112.718,17.501 C112.734,17.462 112.781,17.355 112.833,17.145 C113.089,16.098 113.008,14.810 112.902,13.581 C112.680,11.000 112.345,8.302 111.402,6.058 C111.189,5.551 111.051,5.401 111.020,5.379 C111.020,5.379 109.996,5.391 109.996,5.391 C109.995,4.887 110.246,4.377 110.633,4.143 C110.980,3.933 111.397,3.927 111.750,4.125 C112.239,4.400 112.526,4.962 112.741,5.475 C113.765,7.911 114.121,10.748 114.353,13.452 C114.469,14.806 114.557,16.235 114.246,17.503 C114.242,17.519 114.235,17.538 114.231,17.555 C114.231,17.555 114.868,17.699 114.868,17.699 C114.969,17.599 115.208,17.383 115.316,17.214 C115.893,16.309 116.228,15.064 116.521,13.867 C117.138,11.352 117.685,8.689 117.511,6.258 C117.471,5.707 117.395,5.565 117.373,5.535 C117.373,5.535 117.267,5.356 117.267,5.356 C117.267,5.356 116.397,5.321 116.397,5.321 C116.410,4.821 116.698,4.405 117.148,4.236 C117.613,4.062 118.139,4.185 118.458,4.545 C118.832,4.968 118.923,5.594 118.963,6.150 C119.152,8.790 118.581,11.592 117.935,14.226 z" fill="#F4D09E" /><path id="MorningBirdsong-" d="M178.891,120.164 C178.891,120.164 168.774,121.951 168.774,121.951 C166.764,122.306 164.848,120.962 164.494,118.949 C164.139,116.936 165.481,115.017 167.491,114.662 C167.491,114.662 177.607,112.876 177.607,112.876 C179.617,112.521 181.533,113.865 181.888,115.878 C182.242,117.890 180.900,119.810 178.891,120.164 zM157.827,96.919 C156.264,98.233 153.933,98.029 152.622,96.463 C151.310,94.898 151.514,92.563 153.077,91.250 C153.077,91.250 160.946,84.637 160.946,84.637 C162.509,83.323 164.840,83.527 166.152,85.093 C167.463,86.659 167.260,88.993 165.696,90.306 C165.696,90.306 157.827,96.919 157.827,96.919 zM156.155,135.267 C156.155,135.504 156.130,135.736 156.087,135.962 C160.972,137.538 165.562,139.401 169.789,141.525 C171.613,142.441 172.350,144.665 171.435,146.492 C170.520,148.319 168.300,149.057 166.476,148.140 C159.930,144.850 152.295,142.175 143.907,140.330 C135.518,138.484 126.375,137.466 116.808,137.466 C107.240,137.466 98.098,138.484 89.709,140.330 C81.320,142.175 73.685,144.850 67.139,148.140 C65.316,149.057 63.095,148.319 62.180,146.492 C61.265,144.665 62.002,142.441 63.826,141.525 C68.053,139.401 72.643,137.538 77.528,135.962 C77.485,135.736 77.460,135.505 77.460,135.267 C77.459,127.118 79.940,119.516 84.183,113.231 C88.424,106.944 94.425,101.952 101.491,98.958 C106.200,96.962 111.385,95.859 116.808,95.859 C124.944,95.858 132.534,98.343 138.810,102.592 C145.087,106.840 150.071,112.850 153.061,119.927 C155.053,124.643 156.155,129.836 156.155,135.267 zM143.309,117.374 C139.863,112.264 134.976,108.200 129.245,105.774 C125.424,104.156 121.230,103.261 116.808,103.260 C110.176,103.262 104.048,105.273 98.943,108.724 C93.840,112.176 89.783,117.071 87.360,122.810 C85.916,126.230 85.051,129.949 84.883,133.862 C85.952,133.595 87.032,133.341 88.123,133.101 C97.054,131.136 106.717,130.065 116.808,130.065 C126.898,130.065 136.561,131.136 145.492,133.101 C146.583,133.341 147.663,133.595 148.732,133.862 C148.468,127.760 146.511,122.124 143.309,117.374 zM129.551,69.267 C129.551,69.267 129.551,69.267 129.551,69.267 L129.546,69.266 C129.546,69.266 129.487,69.246 129.487,69.246 C129.427,69.226 129.326,69.194 129.188,69.153 C128.912,69.071 128.492,68.956 127.968,68.839 C126.921,68.605 125.461,68.375 123.952,68.376 C122.970,68.376 121.970,68.472 121.046,68.698 C120.119,68.923 119.274,69.270 118.525,69.767 C118.024,70.099 117.561,70.499 117.126,71.007 C116.548,71.686 116.011,72.563 115.565,73.777 C115.056,75.171 113.762,76.127 112.281,76.201 C110.801,76.276 109.417,75.455 108.771,74.119 C108.092,72.719 107.329,71.721 106.531,70.963 C105.732,70.207 104.888,69.684 103.990,69.302 C103.393,69.049 102.771,68.862 102.138,68.732 C101.294,68.558 100.428,68.486 99.595,68.486 C98.293,68.485 97.075,68.664 96.176,68.856 C95.278,69.046 94.700,69.246 94.667,69.258 C94.667,69.258 94.667,69.257 94.667,69.257 C92.755,69.949 90.642,68.963 89.943,67.049 C89.242,65.129 90.227,63.004 92.143,62.302 C92.263,62.258 93.087,61.962 94.397,61.669 C95.708,61.378 97.506,61.086 99.595,61.085 C101.005,61.085 102.550,61.220 104.157,61.600 C105.761,61.980 107.431,62.612 109.034,63.603 C110.011,64.206 110.958,64.948 111.845,65.824 C111.886,65.780 111.925,65.732 111.966,65.689 C113.350,64.213 114.957,63.145 116.586,62.424 C117.673,61.942 118.771,61.608 119.843,61.383 C121.274,61.084 122.661,60.976 123.952,60.976 C126.184,60.977 128.137,61.297 129.568,61.614 C130.999,61.932 131.907,62.252 132.019,62.291 C133.941,62.977 134.944,65.094 134.259,67.019 C133.576,68.940 131.470,69.944 129.551,69.267 zM97.293,82.451 C99.215,83.137 100.218,85.254 99.533,87.179 C98.850,89.101 96.744,90.104 94.825,89.427 C94.825,89.427 94.825,89.427 94.825,89.427 L94.820,89.426 C94.820,89.426 94.761,89.406 94.761,89.406 C94.701,89.387 94.600,89.354 94.462,89.313 C94.187,89.231 93.766,89.116 93.242,88.999 C92.196,88.765 90.735,88.535 89.226,88.536 C88.244,88.536 87.244,88.633 86.320,88.858 C85.393,89.083 84.548,89.430 83.799,89.927 C83.298,90.259 82.835,90.659 82.400,91.167 C81.822,91.846 81.285,92.723 80.840,93.937 C80.330,95.332 79.036,96.287 77.555,96.361 C76.074,96.436 74.692,95.615 74.045,94.279 C73.366,92.879 72.603,91.881 71.805,91.123 C71.006,90.367 70.162,89.843 69.265,89.462 C68.667,89.209 68.046,89.022 67.412,88.892 C66.568,88.718 65.702,88.646 64.869,88.646 C63.567,88.645 62.349,88.824 61.450,89.016 C60.552,89.206 59.975,89.406 59.941,89.418 C59.941,89.418 59.941,89.417 59.941,89.417 C58.029,90.109 55.916,89.123 55.217,87.209 C54.516,85.289 55.501,83.164 57.417,82.462 C57.537,82.418 58.361,82.122 59.671,81.829 C60.982,81.538 62.780,81.246 64.869,81.245 C66.279,81.245 67.824,81.380 69.431,81.760 C71.036,82.141 72.705,82.773 74.308,83.763 C75.286,84.366 76.232,85.108 77.119,85.984 C77.160,85.940 77.199,85.893 77.240,85.849 C78.624,84.374 80.231,83.305 81.860,82.584 C82.947,82.102 84.045,81.769 85.117,81.543 C86.548,81.244 87.935,81.136 89.226,81.136 C91.458,81.137 93.411,81.457 94.843,81.774 C96.273,82.092 97.181,82.412 97.293,82.451 zM56.008,112.876 C56.008,112.876 66.124,114.662 66.124,114.662 C68.134,115.017 69.476,116.936 69.122,118.949 C68.767,120.962 66.851,122.306 64.841,121.951 C64.841,121.951 54.725,120.164 54.725,120.164 C52.715,119.809 51.373,117.890 51.727,115.878 C52.082,113.865 53.998,112.521 56.008,112.876 z" fill="#795A3E" filter="url(#MorningBirdsong--fx)" /></g></svg>