<?xml version="1.0" encoding="utf-8"?>
<!-- Generator: Adobe Illustrator 24.2.1, SVG Export Plug-In . SVG Version: 6.00 Build 0)  -->
<svg version="1.1" id="Layer_1" xmlns="http://www.w3.org/2000/svg" xmlns:xlink="http://www.w3.org/1999/xlink" x="0px" y="0px"
	 viewBox="0 0 233 227" enable-background="new 0 0 233 227" xml:space="preserve">
<g>
	<path id="back-copy-12" fill="#BF9762" fill-opacity="0" d="M213.6,40.2c0-0.2-0.1-0.4-0.1-0.7c-0.1-0.2-0.1-0.5-0.2-0.7
		c0-0.1-0.1-0.1-0.1-0.2c-3-11.8-12.7-21-25-23.4C166.7,10.5,144.4,8,121.5,8C98.6,8,76.4,10.5,55,15.3c-0.3,0-0.5,0.1-0.8,0.2
		c-0.3,0.1-0.5,0.1-0.8,0.2c-0.1,0-0.2,0.1-0.3,0.1c-11.8,3-21,12.4-23.5,24.1c0,0,0,0,0,0C24.6,61,22,83,22,105.5
		c0,22.5,2.6,44.4,7.5,65.5c0,0,0,0,0,0.1c0.1,0.3,0.1,0.6,0.2,0.8c0,0.1,0.1,0.2,0.1,0.3c2.8,11.2,11.7,20,23,23
		c0.1,0,0.2,0.1,0.4,0.1c0.3,0.1,0.5,0.1,0.8,0.2c0.4,0.1,0.8,0.2,1.2,0.3c21.4,4.7,43.6,7.2,66.4,7.2c22.8,0,45.1-2.5,66.4-7.2
		c0.3-0.1,0.7-0.1,1-0.2c0.1,0,0.1,0,0.2,0c0,0,0.1,0,0.1,0c11.8-2.7,21.1-11.7,24-23.1c0-0.1,0.1-0.2,0.1-0.4
		c0.1-0.3,0.1-0.5,0.2-0.8c0-0.1,0-0.2,0.1-0.3c4.9-21,7.4-42.9,7.4-65.4C221,83.1,218.4,61.2,213.6,40.2z M116.5,29.1
		c0-3.2,2-5.9,4.8-7c2.8,1.1,4.8,3.8,4.8,7c0,3.2-2,5.9-4.8,7C118.5,35,116.5,32.3,116.5,29.1z"/>
	<path id="Shape-7-copy-2" fill="#D8A067" fill-opacity="0" d="M211.9,77c-0.5-13.1-1.6-26.8-8.4-38.1c-10.3-17-27.9-20.7-47.9-22.5
		c-15.9-1.4-24.2-1.6-38.2-1.3l-0.1-0.1c-21.8,0.7-29.9,0.3-45.9,0.7c-16,0.4-33.3,4.5-43.2,16.9c-9.7,12.2-8.8,29.1-9.4,44.6
		c-0.8,19.8-1,39.8-0.5,59.7c0.2,9.5,0.5,19,2.6,28.2c2.1,9.2,6.3,18.2,13.3,24.7c11.4,10.5,28.2,12.6,43.8,13.6c26,1.7,52,2.1,78,1
		c8.9-0.4,17.9-0.9,26.4-3.5c8.5-2.6,16.6-7.4,21.4-14.8c5.1-7.8,6.1-17.4,6.8-26.7C212.5,132,213,104.5,211.9,77z M115.2,34.7
		c-2.9,0-5.2-2.3-5.2-5.1c0-2.8,2.3-5.1,5.2-5.1c2.9,0,5.2,2.3,5.2,5.1C120.4,32.4,118.1,34.7,115.2,34.7z"/>
	<path id="Shape-7" fill="#E9B673" d="M215.9,73c-0.5-13.1-1.6-26.8-8.4-38.1c-10.3-17-27.9-20.7-47.9-22.5
		c-15.9-1.4-24.2-1.6-38.2-1.3l-0.1-0.1c-21.8,0.7-29.9,0.3-45.9,0.7s-33.3,4.5-43.2,16.9c-9.7,12.2-8.8,29.1-9.4,44.6
		c-0.8,19.8-1,39.8-0.5,59.7c0.2,9.5,0.5,19,2.6,28.2c2.1,9.2,6.3,18.2,13.3,24.7c11.4,10.5,28.2,12.6,43.8,13.6c26,1.7,52,2.1,78,1
		c8.9-0.4,17.9-0.9,26.4-3.5c8.5-2.6,16.6-7.4,21.4-14.8c5.1-7.8,6.1-17.4,6.8-26.7C216.5,128,217,100.5,215.9,73z M119.2,30.7
		c-2.9,0-5.2-2.3-5.2-5.1c0-2.8,2.3-5.1,5.2-5.1c2.9,0,5.2,2.3,5.2,5.1C124.4,28.4,122.1,30.7,119.2,30.7z"/>
	<path id="Shape-8" fill="#ECBC7C" d="M30.2,99c-2.9,0-5.7,0-8.6,0c0-0.6,0-1.1,0-1.7c0.1-5.3,0.2-10.7,0.4-16
		c23.4,3.5,47.7-2.3,71.5-5.6c40.5-5.6,81.3-3.7,122.2-0.8c0.2,4.6,0.3,9.2,0.4,13.8C157.1,91.9,98.1,98,39.1,98.9
		C36.2,98.9,33.2,98.9,30.2,99z M150.5,57.9c-23,0.9-45.1,10.5-68.2,10c-10.6-0.2-21-2.6-31.6-2.7c-9.5-0.1-18.9,1.7-28.3,2.2
		c0.1-2.6,0.1-5.2,0.3-7.9c0.3,0,0.6,0,0.9-0.1c12-1.1,24.3-6.3,35.7-2.5c4.2,1.4,8,4,12.3,5.3c4.8,1.4,10,1,15,0.3
		c16.2-2.2,32-6.8,48.3-8c21.5-1.5,43,3.1,64.4,5.8c5.2,0.7,10.5,1.2,15.7,1.6c0.1,0.6,0.1,1.2,0.1,1.8c-6.8-0.4-13.6-0.9-20.3-1.7
		C180,60.5,165.3,57.4,150.5,57.9z M120.1,52.6c-13.2,1.9-26.3,6.2-39.7,5.3c-8.6-0.6-16.9-3.2-25.4-4.6
		c-10.5-1.7-21.2-1.2-31.9-0.9c0.2-2.3,0.6-4.6,1-6.9c6,0,12.1,0.2,18.1,0.7c13.2,1.1,26.3,3.6,39.5,4.2c17.5,0.7,34.9-2,52.4-3.3
		c26.1-1.9,52.4-0.5,78.7,1.4c0.8,3.2,1.3,6.4,1.7,9.7c-6.8-0.6-13.5-1.2-20.3-2C169.6,53.4,144.7,49,120.1,52.6z M121.3,29.5
		c1.5-0.8,2.6-2.4,2.7-4.2c19.5,0.8,39,0.8,58.5,0.9c6,0,12.1,0,18.1,0c1.1,1,2.1,2.1,3,3.3c-7.2,0-14.5,0-21.7,0
		C161.7,29.5,141.5,29.5,121.3,29.5z M116.6,20.4c-22.9-1.5-45.9-3.1-68.8-3.9c4.5-1.9,9.4-3.2,14.4-4c17.1,0.8,34.1,1.7,51.2,2.1
		c17.9,0.4,35.8,0.3,53.8,0.2c3.4,0,6.7,0,10.1-0.1c7.9,1.8,15.1,4.7,21,9.6c-25.6-0.3-51.2-1.8-76.8-3.5
		C119.9,20.6,118.3,20.5,116.6,20.4z M113.6,24.9c0,0.1,0,0.1,0,0.2c0,1.9,1.1,3.6,2.7,4.5c-28.5,0-57.1,0-85.6,0
		c0.3-0.5,0.7-0.9,1-1.4c2.6-3.3,5.7-5.9,9.2-8.1c0.4,0,0.8,0,1.2,0c21.7,0.6,43.4,3.1,65.1,4.5C109.3,24.6,111.5,24.7,113.6,24.9z
		 M216,113.3c-0.1,6.4-0.3,12.8-0.6,19.2c-64.3,3.6-129,3.7-193.6,2.2c0-0.8,0-1.7-0.1-2.5c-0.1-3.7-0.1-7.4-0.2-11.1
		C86.3,121.4,151.3,110.7,216,113.3z M53.1,149.2c18.5-0.5,36.8-3,55.3-4c23.7-1.3,47.5-0.3,71.2,0.1c8.3,0.1,16.6,0.2,24.9,0.2
		c3.4,0,6.9,0,10.3,0c-0.1,0.9-0.1,1.7-0.2,2.6c-3.4,0-6.7,0-10.1,0c-6.5,0-13,0-19.4,0.2c-23.5,0.4-47,1.8-70.5,2.3
		c-25.1,0.5-50.3,0-75.5-0.5c-5.5-0.1-10.9-0.2-16.4-0.3c0-0.3-0.1-0.6-0.1-0.8c5.5,0.3,11,0.5,16.5,0.6
		C43.7,149.3,48.4,149.3,53.1,149.2z M101.8,154.3c37.3,0.6,74.7,2.5,112.1,3.9c-0.4,5-1.1,10.1-2.7,14.8c-27-4.2-54.1-7.6-81.3-8.7
		c-8.2-0.3-16.5-0.5-24.8-0.3c-24.2,0.4-48.3,3-72.3,6.2c-1.7,0.2-3.3,0.4-5,0.7c-0.3-0.6-0.6-1.3-0.8-1.9c1.9-0.2,3.7-0.5,5.6-0.7
		c17.3-2.3,34.5-5.1,51.7-8.1c-6.5-0.2-13.1-0.4-19.6-0.4c-13.4-0.2-26.9,0-40.3,0.4c-0.4-1.9-0.8-3.9-1.1-5.8c8.3,0,16.6,0,25,0
		C66,154.1,83.9,154,101.8,154.3z M140.4,170.3c22.4,0.6,43.9,6.9,65.6,12.7c-3,3.9-7,7-11.4,9.3c-21.1-5.5-42.4-9.9-64.2-10.4
		c-18.9-0.5-37.8,2-56.5,4.5c-9.6,1.3-19.2,2.6-28.8,3.8c-2.7-1.5-5.2-3.3-7.5-5.4c-1.7-1.6-3.3-3.3-4.7-5.2
		c24.8-2.5,49.5-5,74.3-7.5C118.3,171.1,129.3,170,140.4,170.3z"/>
	<path id="rope-copy" fill="#F4D09E" d="M121.9,20.2c-0.3,1.3-0.7,2.7-1.4,3.8c-0.2,0.3-0.6,0.8-1.1,0.9c-0.1,0-0.2,0-0.3,0
		c-0.3,0-0.6-0.1-0.8-0.3c-0.2-0.2-0.3-0.4-0.3-0.7c-0.1,0.3-0.3,0.6-0.6,0.8c-0.2,0.1-0.3,0.2-0.5,0.2c-0.1,0-0.3,0-0.4-0.1
		c-0.4-0.2-0.8-0.6-0.9-1l1-0.3c0,0,0.1-0.1,0.1-0.4c0.3-1,0.2-2.3,0.1-3.6c-0.2-2.6-0.6-5.3-1.5-7.5c-0.2-0.5-0.4-0.7-0.4-0.7l-1,0
		c0-0.5,0.2-1,0.6-1.2c0.3-0.2,0.8-0.2,1.1,0c0.5,0.3,0.8,0.8,1,1.4c1,2.4,1.4,5.3,1.6,8c0.1,1.4,0.2,2.8-0.1,4.1c0,0,0,0,0,0.1
		l0.6,0.1c0.1-0.1,0.3-0.3,0.4-0.5c0.6-0.9,0.9-2.2,1.2-3.3c0.6-2.5,1.2-5.2,1-7.6c0-0.6-0.1-0.7-0.1-0.7l-0.1-0.2l-0.9,0
		c0-0.5,0.3-0.9,0.8-1.1c0.5-0.2,1-0.1,1.3,0.3c0.4,0.4,0.5,1,0.5,1.6C123.2,14.8,122.6,17.6,121.9,20.2z"/>
	<path id="Seagulls-Normal" fill="#795A3E" d="M174.7,129.8c-1.2-9-4.5-13.2-11.3-14.7c-2.8-0.6-6.6-1.2-10-1.8c1-1,1.9-2,2.5-3.2
		c3.2-0.5,6,0.1,6,0.1c2.1,0.5,4.2-0.8,4.8-2.9c0.5-2.1-0.8-4.3-2.9-4.8c-0.5-0.1-3.9-0.8-8.3-0.3c-0.7-1.2-1.5-2.1-1.9-2.5
		c-2.2-2.3-4.7-3.6-7.2-3.6c-3,0-5.8,0.8-9.3,1.8l-1.4,0.4c-1.4-2.5-2.9-8.5-3.4-14.5c-0.1-0.9,0-2,0-3.1c0.1-6,0.2-15.9-9.8-19.4
		c-9.9-3.4-27.2-7.4-43.9-8.4c-7.5-0.4-20.4-0.2-21.7,6.4c-1,5.2,4.5,9,21.2,14.6c16.2,5.4,17.2,8.5,18.5,12.9
		c2.7,8.5,5.7,14.5,8,19c1.7,3.4,3,6,3.4,8.1c0,0,0,0,0,0l-17.7-1.2c-2-0.1-3.8,1.3-4.2,3.2c-0.1,0.6-2.6,14.8,6.3,24.3
		c8.6,9.3,20.7,9.8,21.2,9.9c0.1,0,0.1,0,0.1,0c1.6,0,3.1-1,3.7-2.6l5.4-14.3c1.1-0.2,2.2-0.5,3.2-0.8c2,0.8,9.9,3.9,17.8,5.5
		c3.3,0.7,3.6,1,5.6,10.2c0.3,1.6,0.7,3.3,1.2,5.3c2.7,11.3,4.6,18.3,10.1,18.7c0.2,0,0.3,0,0.5,0c4.8,0,7.4-6.1,8.6-8.8
		C171.5,159.5,176.8,145.5,174.7,129.8z M104.2,84.4c-2.5-8-6.3-12.3-23.6-18c-6.8-2.3-10.7-4-13.1-5.2c2.8-0.4,6.7-0.6,10.5-0.3
		c15.9,1,32.4,4.7,41.7,7.9c4.3,1.5,4.6,5.7,4.5,11.8c0,1.4,0,2.7,0,3.8c0.1,1.8,1.5,17.7,7.9,21.8c0.9,0.6,2.1,0.8,3.2,0.5l3.8-1.1
		c3.1-0.9,5.2-1.5,7-1.5c0.8,0.1,2.2,1.7,2.6,2.2c-0.3,1.1-3.3,3.3-5.3,4.8c-1.5,1.1-3,2.2-4.5,3.4c-1.2,1-2.3,2.1-3.4,3.1
		c-3,2.8-5.3,5.1-10.8,7c-1.9,0.7-7.7,1.8-11.7,2.5l-4.4,1.8l2-1.2c1.1-0.6,1.8-1.8,1.9-3c0,0,0.4-4.4,2.6-7.4
		c0.5-0.7,0.8-1.5,0.8-2.3c0-4.2-1.9-7.9-4.4-12.7C109.5,97.8,106.7,92.3,104.2,84.4z M98.3,134.8c-3.9-4.2-4.6-10.3-4.6-14
		l11.5,0.8c0,0.1,0,0.1-0.1,0.2l-5.5,3.3c-1.9,1.1-2.5,3.6-1.4,5.4c0.7,1.2,2.1,1.9,3.4,1.9c0.3,0,0.6-0.2,1-0.3
		c-0.6,1-0.9,2.3-0.4,3.5c0.6,1.6,2.1,2.5,3.7,2.5c0.5,0,1-0.1,1.5-0.3l6.4-2.6l-2.4,6.5C108,141.1,102.5,139.4,98.3,134.8z
		 M162.6,160.2c-0.4,1-0.8,1.8-1.1,2.4c-1.2-3-2.4-8.2-3.1-11.1l-1.2-5.2c-2-9-3.2-14.5-11.8-16.2c-3.3-0.7-6.6-1.6-9.4-2.5
		c1.9-1.4,3.5-2.9,5-4.3c1-0.9,1.9-1.8,3-2.8c0.3-0.2,0.5-0.4,0.8-0.6c2.7,0.4,11.7,1.8,16.8,2.9c2.3,0.5,4.2,0.9,5.1,8
		C168.7,144.6,164.1,156.8,162.6,160.2z"/>
</g>
</svg>
