<svg version="1.1" xmlns="http://www.w3.org/2000/svg" xmlns:xlink="http://www.w3.org/1999/xlink" width="229" height="225" viewBox="0 0 229 225"><defs><filter id="back-copy-26-fx" filterUnits="userSpaceOnUse"><feFlood flood-color="#061645" flood-opacity="0.270"/><feComposite operator="in" in2="SourceAlpha" /><feOffset dx="-2.99685274732728" dy="7.41747083653432"/><feGaussianBlur stdDeviation="5.9" result="blur" /><feComposite operator="out" in="blur" in2="SourceAlpha" result="maskedShadow"/><feComposite operator="over" in="maskedShadow" in2="SourceGraphic" result="dropShadow"/><feFlood flood-color="#061645" flood-opacity="0.270"/><feComposite operator="out" in2="SourceAlpha"/><feOffset dx="0" dy="0"/><feGaussianBlur stdDeviation="5.9" result="blur" /><feComposite operator="in" in="blur" in2="SourceAlpha" result="maskedShadow"/><feBlend mode="multiply" in="maskedShadow" in2="dropShadow" result="innerShadow"/></filter><filter id="TropicalBird-Nor-fx" filterUnits="userSpaceOnUse"><feFlood flood-color="#F8F9CD" flood-opacity="0.310"/><feComposite operator="in" in2="SourceAlpha" /><feOffset dx="0.76323598150616" dy="3.92650873379064"/><feGaussianBlur stdDeviation="0.0" result="blur" /><feComposite operator="out" in="blur" in2="SourceAlpha" result="maskedShadow"/><feComposite operator="over" in="maskedShadow" in2="SourceGraphic" result="dropShadow"/><feFlood flood-color="#7E4700" flood-opacity="0.280"/><feComposite operator="out" in2="SourceAlpha"/><feOffset dx="0" dy="6"/><feGaussianBlur stdDeviation="1.5" result="blur" /><feComposite operator="in" in="blur" in2="SourceAlpha" result="maskedShadow"/><feBlend mode="multiply" in="maskedShadow" in2="dropShadow" result="innerShadow"/></filter></defs><g id=""><path id="back-copy-26" d="M209.580,40.250 C209.535,40.026 209.482,39.805 209.433,39.582 C209.377,39.344 209.330,39.102 209.274,38.864 C209.258,38.794 209.215,38.742 209.195,38.675 C206.181,26.868 196.452,17.675 184.190,15.274 C162.737,10.514 140.417,7.992 117.493,7.992 C94.625,7.992 72.363,10.514 50.957,15.253 C50.703,15.301 50.453,15.359 50.201,15.413 C49.935,15.473 49.666,15.523 49.401,15.583 C49.267,15.613 49.174,15.666 49.052,15.703 C37.233,18.707 28.028,28.054 25.504,39.840 C25.501,39.855 25.492,39.867 25.489,39.882 C20.588,60.990 17.997,82.958 17.997,105.520 C17.997,128.022 20.586,149.928 25.461,170.985 C25.466,171.009 25.472,171.034 25.477,171.059 C25.541,171.339 25.597,171.623 25.662,171.903 C25.692,172.028 25.752,172.132 25.790,172.251 C28.612,183.428 37.456,192.248 48.772,195.231 C48.898,195.269 49.002,195.322 49.138,195.353 C49.393,195.411 49.653,195.460 49.909,195.517 C50.313,195.608 50.715,195.700 51.125,195.776 C72.479,200.491 94.684,203.003 117.493,203.003 C140.325,203.003 162.553,200.492 183.927,195.769 C184.272,195.704 184.613,195.628 184.954,195.553 C185.007,195.541 185.062,195.531 185.116,195.518 C185.147,195.512 185.171,195.498 185.202,195.490 C196.975,192.794 206.253,183.818 209.189,172.351 C209.228,172.225 209.288,172.115 209.319,171.982 C209.382,171.716 209.435,171.446 209.496,171.180 C209.516,171.088 209.538,170.997 209.557,170.905 C214.419,149.873 217.004,127.994 217.004,105.520 C217.004,83.087 214.426,61.248 209.580,40.250 zM112.514,29.084 C112.514,25.911 114.505,23.199 117.328,22.066 C120.151,23.199 122.142,25.911 122.142,29.084 C122.142,32.258 120.151,34.970 117.328,36.102 C114.505,34.970 112.514,32.258 112.514,29.084 z" fill="#BF9762" fill-opacity="0.000" filter="url(#back-copy-26-fx)" /><path id="Shape-9-copy-5" d="M207.711,70.039 C205.890,52.699 202.397,33.735 188.838,22.750 C179.770,15.403 167.849,13.061 156.133,11.718 C156.133,11.718 154.860,11.934 154.860,11.934 C125.366,8.530 95.530,8.090 65.948,10.622 C51.550,11.855 36.103,14.306 25.823,24.447 C13.467,36.637 12.413,55.883 12.131,73.225 C11.839,91.232 11.547,109.239 11.255,127.246 C11.045,140.236 10.850,153.383 13.832,166.028 C16.813,178.672 23.354,190.967 34.111,198.273 C44.267,205.170 56.973,206.949 69.207,208.030 C101.536,210.885 134.181,210.158 166.350,205.866 C179.363,204.130 193.469,201.159 201.752,190.987 C208.889,182.224 209.986,170.151 210.467,158.865 C211.730,129.243 210.808,99.527 207.711,70.039 zM111.082,29.046 C108.080,29.046 105.647,26.616 105.647,23.618 C105.647,20.620 108.080,18.190 111.082,18.190 C114.084,18.190 116.518,20.620 116.518,23.618 C116.518,26.616 114.084,29.046 111.082,29.046 z" fill="#D2955A" /><path id="Shape-9-copy-4" d="M211.711,66.039 C209.890,48.699 206.397,29.735 192.838,18.750 C183.770,11.403 171.849,9.061 160.133,7.718 C160.133,7.718 158.860,7.934 158.860,7.934 C129.366,4.530 99.530,4.090 69.948,6.622 C55.550,7.855 40.103,10.306 29.823,20.447 C17.467,32.637 16.413,51.883 16.131,69.225 C15.839,87.232 15.547,105.239 15.255,123.246 C15.045,136.236 14.850,149.383 17.832,162.028 C20.813,174.672 27.354,186.967 38.111,194.273 C48.267,201.170 60.973,202.949 73.207,204.030 C105.536,206.885 138.181,206.158 170.350,201.866 C183.363,200.130 197.469,197.159 205.752,186.987 C212.889,178.224 213.986,166.151 214.467,154.865 C215.730,125.243 214.808,95.527 211.711,66.039 zM115.082,25.046 C112.080,25.046 109.647,22.616 109.647,19.618 C109.647,16.620 112.080,14.190 115.082,14.190 C118.084,14.190 120.518,16.620 120.518,19.618 C120.518,22.616 118.084,25.046 115.082,25.046 z" fill="#E5B26F" /><path id="Shape-10-copy-2" d="M28.578,124.511 C28.578,124.511 28.522,125.288 28.522,125.288 C27.597,125.227 26.667,125.161 25.742,125.082 C26.237,119.965 30.320,115.527 35.230,113.912 C40.346,112.222 46.087,113.270 50.828,115.827 C52.921,116.955 54.902,118.406 56.229,120.382 C57.373,122.090 57.976,124.230 57.626,126.238 C57.140,126.224 56.654,126.215 56.173,126.201 C56.173,126.201 56.210,124.731 56.210,124.731 C52.015,121.856 47.269,119.553 42.200,119.150 C37.136,118.748 31.713,120.499 28.578,124.511 zM128.007,106.932 C114.296,103.121 101.856,95.720 88.425,91.010 C65.245,82.878 39.262,83.435 16.250,91.937 C16.245,92.803 16.236,93.664 16.226,94.530 C32.409,88.234 51.226,88.871 66.871,96.459 C71.874,98.889 76.601,101.997 81.936,103.584 C86.991,105.092 92.830,105.382 96.521,109.165 C98.782,111.482 99.833,114.787 102.127,117.077 C104.173,119.122 107.004,120.157 109.765,121.014 C124.700,125.634 140.307,126.730 156.008,126.482 C156.008,126.482 156.027,127.746 156.027,127.746 C152.916,127.792 149.809,127.825 146.698,127.844 C127.797,127.952 108.896,127.493 90.004,127.029 C86.444,126.940 82.889,126.856 79.330,126.767 C79.330,126.767 79.376,124.824 79.376,124.824 C79.185,116.753 74.303,109.305 67.824,104.511 C61.344,99.722 53.426,97.278 45.508,95.808 C37.160,94.259 28.284,93.753 20.407,96.932 C18.936,97.527 17.525,98.238 16.184,99.048 C16.156,101.918 16.128,104.788 16.096,107.657 C18.917,105.200 22.136,103.201 25.611,101.805 C34.357,98.299 44.573,98.669 53.043,102.803 C61.321,106.847 68.169,115.742 66.366,124.796 C66.366,124.796 66.324,126.449 66.324,126.449 C65.338,126.425 64.357,126.402 63.376,126.379 C63.376,126.379 63.404,125.302 63.404,125.302 C63.320,122.736 62.330,120.279 60.998,118.088 C55.799,109.502 44.938,104.783 35.127,106.843 C26.480,108.664 19.197,115.635 16.689,124.075 C16.423,124.038 16.161,124.000 15.895,123.958 C15.801,131.023 15.694,138.087 15.572,145.151 C45.241,142.577 75.821,147.857 105.855,150.025 C141.888,152.625 178.002,150.653 214.118,148.096 C214.046,150.424 213.966,152.752 213.867,155.079 C213.703,158.928 213.461,162.865 212.942,166.734 C147.829,166.660 82.599,164.316 17.561,161.725 C16.535,157.222 15.899,152.657 15.520,148.059 C14.848,139.894 14.973,131.626 15.105,123.420 C15.397,105.391 15.688,87.361 15.979,69.331 C16.046,65.218 16.158,60.999 16.450,56.791 C16.453,55.902 16.458,55.013 16.460,54.125 C16.527,54.125 16.594,54.125 16.661,54.125 C80.948,54.143 145.234,54.159 209.521,54.175 C210.203,58.172 210.704,62.198 211.117,66.141 C211.475,69.562 211.801,72.987 212.100,76.414 C208.166,76.539 204.230,76.552 200.290,76.385 C186.532,75.804 172.947,73.117 159.227,71.933 C132.174,69.606 104.944,73.150 77.816,72.087 C72.406,71.872 66.978,71.479 61.545,71.025 C46.456,69.761 31.315,68.019 16.409,68.328 C16.404,69.864 16.394,71.399 16.385,72.935 C31.180,71.502 46.218,72.144 61.349,73.426 C64.586,73.698 67.828,74.002 71.070,74.325 C90.653,76.244 110.344,78.716 129.834,78.641 C144.115,78.590 158.503,77.157 172.606,79.414 C181.440,80.823 190.050,83.669 198.972,84.269 C203.572,84.580 208.139,84.286 212.692,83.687 C212.805,85.191 212.916,86.696 213.018,88.202 C210.445,88.656 207.867,89.075 205.279,89.428 C200.098,90.135 194.735,90.575 189.723,89.095 C185.261,87.775 181.351,85.013 176.955,83.496 C165.085,79.400 152.294,84.924 139.793,86.099 C126.493,87.344 113.310,83.590 100.295,80.566 C90.775,78.356 80.881,76.600 70.939,75.659 C52.127,73.871 33.161,74.985 16.334,81.371 C16.324,82.710 16.315,84.049 16.301,85.383 C39.140,76.923 64.717,75.781 88.079,82.747 C101.127,86.642 113.609,92.929 127.147,94.324 C140.765,95.724 154.411,92.054 168.098,92.157 C179.090,92.236 189.947,94.741 200.939,94.975 C205.119,95.064 209.270,94.821 213.403,94.361 C213.568,97.217 213.709,100.074 213.833,102.932 C213.377,102.994 212.920,103.052 212.464,103.116 C184.327,107.086 155.392,114.534 128.007,106.932 zM17.426,47.709 C17.855,44.906 18.417,42.150 19.151,39.476 C55.778,42.584 92.672,39.703 129.455,39.607 C155.257,39.543 181.062,40.862 206.857,42.505 C207.345,44.139 207.782,45.797 208.174,47.473 C191.838,46.130 175.514,44.619 159.134,44.120 C111.929,42.674 64.397,49.621 17.426,47.709 zM22.733,30.063 C24.104,27.371 25.759,24.839 27.758,22.519 C28.268,21.927 28.801,21.348 29.357,20.785 C29.453,20.688 29.543,20.587 29.640,20.491 C30.739,19.403 31.908,18.420 33.119,17.500 C58.051,20.415 83.785,19.070 109.434,18.408 C109.339,18.811 109.283,19.229 109.283,19.661 C109.283,21.391 110.093,22.929 111.350,23.924 C92.645,24.274 73.943,24.771 55.495,23.662 C55.495,23.662 55.467,24.125 55.467,24.125 C97.287,26.550 139.107,28.976 180.926,31.396 C188.289,31.822 195.661,32.246 203.037,32.616 C203.782,34.123 204.457,35.676 205.072,37.264 C193.814,36.766 182.559,36.181 171.303,35.633 C121.801,33.220 72.270,31.585 22.733,30.063 zM118.209,23.807 C119.383,22.810 120.130,21.324 120.130,19.661 C120.130,19.150 120.054,18.658 119.923,18.190 C128.399,18.064 136.852,18.085 145.250,18.437 C163.163,19.193 181.008,21.501 198.535,25.293 C199.329,26.339 200.076,27.421 200.771,28.538 C186.162,26.959 171.533,25.151 156.961,24.317 C144.113,23.583 131.167,23.608 118.209,23.807 zM121.612,7.071 C115.113,6.811 108.665,5.961 102.220,5.064 C116.011,4.899 129.810,5.382 143.557,6.506 C136.234,6.926 128.897,7.366 121.612,7.071 zM112.923,179.289 C127.236,179.925 141.550,180.937 155.873,181.180 C160.750,181.260 165.632,181.255 170.509,181.115 C183.786,180.733 197.007,179.361 210.241,178.183 C209.680,179.690 209.016,181.148 208.258,182.559 C190.812,182.521 173.343,182.171 155.877,181.812 C112.842,180.933 69.828,180.067 27.234,183.957 C26.082,182.354 25.023,180.677 24.053,178.941 C53.682,178.223 83.321,177.964 112.923,179.289 zM165.351,186.344 C178.835,186.320 192.321,186.298 205.805,186.399 C205.594,186.680 205.394,186.967 205.171,187.242 C203.524,189.272 201.638,191.005 199.583,192.509 C193.870,192.334 188.158,192.201 182.445,192.130 C144.194,191.657 105.915,193.511 67.889,197.678 C61.434,198.384 54.936,199.153 48.430,199.769 C44.726,198.459 41.184,196.768 37.909,194.537 C35.413,192.836 33.154,190.855 31.105,188.672 C54.825,186.571 78.777,186.515 102.617,186.466 C123.527,186.428 144.441,186.386 165.351,186.344 zM198.287,193.415 C194.385,196.000 189.929,197.811 185.253,199.142 C173.291,200.286 161.345,201.751 149.407,203.347 C144.358,204.022 139.310,204.721 134.264,205.428 C125.226,205.894 116.175,206.076 107.126,205.983 C121.163,204.761 135.163,203.147 149.127,201.231 C165.564,198.978 181.946,196.311 198.287,193.415 z" fill="#E8B676" /><path id="rope-copy-11" d="M117.935,14.226 C117.612,15.545 117.238,16.924 116.538,18.021 C116.320,18.361 115.972,18.829 115.453,18.964 C115.369,18.985 115.284,18.996 115.198,18.996 C114.908,18.996 114.619,18.875 114.401,18.654 C114.222,18.472 114.120,18.242 114.084,17.998 C113.968,18.282 113.800,18.568 113.521,18.754 C113.368,18.857 113.188,18.909 113.000,18.909 C112.870,18.909 112.735,18.883 112.603,18.833 C112.166,18.665 111.791,18.248 111.669,17.794 C111.669,17.794 112.718,17.501 112.718,17.501 C112.734,17.462 112.781,17.355 112.833,17.145 C113.089,16.098 113.008,14.810 112.902,13.581 C112.680,11.000 112.345,8.302 111.402,6.058 C111.189,5.551 111.051,5.401 111.020,5.379 C111.020,5.379 109.996,5.391 109.996,5.391 C109.995,4.887 110.246,4.377 110.633,4.143 C110.980,3.933 111.397,3.927 111.750,4.125 C112.239,4.400 112.526,4.962 112.741,5.475 C113.765,7.911 114.121,10.748 114.353,13.452 C114.469,14.806 114.557,16.235 114.246,17.503 C114.242,17.519 114.235,17.538 114.231,17.555 C114.231,17.555 114.868,17.699 114.868,17.699 C114.969,17.599 115.208,17.383 115.316,17.214 C115.893,16.309 116.228,15.064 116.521,13.867 C117.138,11.352 117.685,8.689 117.511,6.258 C117.471,5.707 117.395,5.565 117.373,5.535 C117.373,5.535 117.267,5.356 117.267,5.356 C117.267,5.356 116.397,5.321 116.397,5.321 C116.410,4.821 116.698,4.405 117.148,4.236 C117.613,4.062 118.139,4.185 118.458,4.545 C118.832,4.968 118.923,5.594 118.963,6.150 C119.152,8.790 118.581,11.592 117.935,14.226 z" fill="#F4D09E" /><path id="TropicalBird-Nor" d="M164.255,75.715 C163.397,76.432 162.280,76.715 161.191,76.488 C160.001,76.241 158.787,76.015 157.548,75.816 C153.006,75.083 148.601,74.765 144.365,74.765 C143.710,74.765 143.060,74.776 142.413,74.791 C141.711,76.079 140.898,77.296 139.984,78.424 C141.442,83.299 142.142,88.311 142.142,93.290 C142.141,101.959 140.029,110.534 136.105,118.212 C133.251,123.796 129.428,128.906 124.753,133.222 C124.753,133.222 158.545,133.222 158.545,133.222 C160.566,133.222 162.205,134.884 162.205,136.936 C162.205,138.986 160.566,140.649 158.545,140.649 C158.545,140.649 116.751,140.649 116.751,140.649 C116.714,141.169 116.676,141.686 116.633,142.193 C116.511,143.643 116.362,145.038 116.186,146.392 C116.186,146.392 148.561,146.392 148.561,146.392 C150.583,146.392 152.222,148.055 152.222,150.106 C152.222,152.157 150.583,153.820 148.561,153.820 C148.561,153.820 114.781,153.820 114.781,153.820 C114.702,154.121 114.624,154.424 114.540,154.721 C113.833,157.202 112.938,159.495 111.795,161.590 C110.276,164.382 108.299,166.817 105.851,168.781 C104.771,169.650 103.601,170.425 102.352,171.112 C101.722,173.051 100.964,174.868 100.045,176.555 C98.525,179.347 96.547,181.782 94.100,183.746 C92.704,184.869 91.161,185.840 89.483,186.660 C87.566,187.598 85.474,188.343 83.203,188.919 C82.112,189.195 80.949,188.945 80.063,188.243 C79.176,187.541 78.654,186.456 78.654,185.316 C78.654,173.453 78.654,162.874 78.654,153.820 C78.654,153.820 69.284,153.820 69.284,153.820 C67.263,153.820 65.624,152.157 65.624,150.106 C65.624,148.055 67.263,146.392 69.284,146.392 C69.284,146.392 78.654,146.392 78.654,146.392 C78.654,144.379 78.654,142.464 78.654,140.649 C78.654,140.649 69.284,140.649 69.284,140.649 C68.321,140.649 67.378,140.253 66.696,139.561 C66.014,138.870 65.624,137.914 65.624,136.936 C65.620,127.638 67.506,120.515 69.955,115.273 C72.400,110.028 75.385,106.683 77.465,104.811 C78.852,103.561 79.839,102.958 80.020,102.852 C80.427,102.611 80.861,102.463 81.300,102.394 C82.644,98.469 84.391,94.944 86.306,91.840 C90.532,84.994 95.535,80.158 98.901,77.333 C99.878,76.513 100.719,75.864 101.366,75.386 C100.834,74.474 100.356,73.525 99.945,72.539 C98.748,69.668 98.086,66.505 98.086,63.205 C98.085,58.251 99.577,53.618 102.125,49.795 C104.673,45.970 108.274,42.935 112.520,41.112 C115.350,39.897 118.468,39.226 121.721,39.227 C126.603,39.225 131.170,40.739 134.938,43.324 C138.445,45.728 141.277,49.059 143.102,52.979 C144.748,52.935 146.368,52.877 147.962,52.876 C149.352,52.876 150.727,52.922 152.098,53.089 C153.468,53.256 154.841,53.545 156.189,54.062 C157.087,54.406 157.971,54.855 158.807,55.425 C159.923,56.184 160.943,57.162 161.804,58.325 C161.960,58.536 162.088,58.734 162.208,58.933 C162.327,59.131 162.437,59.331 162.543,59.537 C162.756,59.949 162.956,60.388 163.153,60.867 C163.548,61.823 163.932,62.937 164.284,64.184 C164.981,66.675 165.550,69.677 165.586,72.811 C165.598,73.938 165.112,74.998 164.255,75.715 zM74.756,123.284 C73.935,126.067 73.311,129.354 73.063,133.222 C73.063,133.222 78.654,133.222 78.654,133.222 C78.654,126.232 78.654,121.524 78.654,119.461 C78.654,118.676 78.654,118.275 78.654,118.274 C78.654,116.989 78.705,115.729 78.799,114.494 C77.361,116.626 75.877,119.493 74.756,123.284 zM105.322,158.118 C106.141,156.640 106.841,154.929 107.423,152.949 C108.200,150.312 108.765,147.201 109.145,143.607 C109.164,143.434 109.181,143.258 109.198,143.082 C107.959,143.581 106.690,144.032 105.394,144.438 C105.353,149.053 105.207,153.283 104.882,157.158 C104.825,157.837 104.761,158.503 104.692,159.161 C104.909,158.824 105.120,158.480 105.322,158.118 zM135.250,53.953 C133.491,51.310 130.993,49.207 128.070,47.953 C126.120,47.117 123.983,46.654 121.721,46.654 C118.329,46.656 115.211,47.693 112.603,49.478 C109.997,51.264 107.923,53.798 106.688,56.763 C105.864,58.742 105.408,60.909 105.407,63.205 C105.408,65.500 105.864,67.668 106.688,69.646 C107.512,71.623 108.707,73.408 110.185,74.908 C111.232,75.970 111.545,77.568 110.979,78.955 C110.412,80.343 109.077,81.247 107.597,81.247 C107.597,81.247 105.871,81.247 105.871,81.247 C105.811,81.291 105.750,81.335 105.684,81.384 C104.994,81.894 103.990,82.674 102.799,83.713 C100.417,85.790 97.289,88.904 94.397,92.948 C92.467,95.643 90.642,98.750 89.191,102.241 C87.256,106.899 85.977,112.227 85.976,118.274 C85.976,118.274 85.976,119.461 85.976,119.461 L85.976,122.941 C85.976,122.941 85.976,132.576 85.976,132.576 C88.288,131.438 90.644,130.117 92.975,128.637 C95.474,127.049 97.944,125.277 100.297,123.341 C105.502,119.064 110.131,113.994 113.351,108.452 C114.259,106.892 115.049,105.293 115.722,103.664 C116.642,101.436 117.337,99.151 117.756,96.813 C118.117,94.795 120.023,93.456 122.012,93.823 C124.001,94.190 125.320,96.123 124.959,98.141 C124.283,101.916 123.055,105.516 121.421,108.907 C119.787,112.298 117.745,115.481 115.424,118.445 C110.779,124.373 105.021,129.432 99.017,133.517 C95.013,136.238 90.897,138.525 86.904,140.328 C86.600,140.465 86.289,140.553 85.976,140.602 C85.976,140.602 85.976,180.125 85.976,180.125 C86.467,179.895 86.936,179.654 87.379,179.401 C89.022,178.459 90.358,177.362 91.507,176.047 C92.273,175.170 92.955,174.191 93.571,173.082 C94.391,171.605 95.089,169.893 95.672,167.914 C96.449,165.276 97.013,162.165 97.394,158.571 C97.904,153.779 98.087,148.134 98.086,141.619 C98.086,139.915 99.230,138.429 100.860,138.016 C106.122,136.683 110.856,134.472 115.018,131.591 C119.179,128.709 122.766,125.156 125.703,121.138 C131.577,113.104 134.825,103.212 134.821,93.290 C134.821,88.390 134.034,83.485 132.393,78.770 C131.923,77.419 132.257,75.921 133.256,74.908 C134.735,73.408 135.930,71.623 136.754,69.646 C137.577,67.668 138.033,65.500 138.034,63.205 C138.032,59.764 137.010,56.599 135.250,53.953 zM156.781,64.743 C156.540,64.047 156.299,63.471 156.122,63.111 C156.035,62.930 155.964,62.810 155.944,62.779 C155.650,62.385 155.356,62.083 155.045,61.830 C154.730,61.574 154.395,61.365 154.005,61.182 C153.233,60.817 152.214,60.560 150.905,60.427 C150.036,60.338 149.048,60.303 147.962,60.303 C147.095,60.303 146.166,60.325 145.183,60.353 C145.292,61.290 145.355,62.240 145.355,63.205 C145.355,64.614 145.228,65.996 144.996,67.343 C149.106,67.371 153.369,67.679 157.753,68.338 C157.482,66.995 157.128,65.742 156.781,64.743 zM129.079,65.690 C127.743,67.211 125.445,67.345 123.946,65.991 C122.447,64.636 122.315,62.304 123.650,60.783 C124.986,59.262 127.284,59.128 128.783,60.483 C130.282,61.838 130.414,64.169 129.079,65.690 z" fill="#795A3E" filter="url(#TropicalBird-Nor-fx)" /></g></svg>