<?xml version="1.0" encoding="utf-8"?>
<!-- Generator: Adobe Illustrator 24.2.1, SVG Export Plug-In . SVG Version: 6.00 Build 0)  -->
<svg version="1.1" id="Layer_1" xmlns="http://www.w3.org/2000/svg" xmlns:xlink="http://www.w3.org/1999/xlink" x="0px" y="0px"
	 viewBox="0 0 229 225" enable-background="new 0 0 229 225" xml:space="preserve">
<g>
	<path id="back-copy-7" fill="#BF9762" fill-opacity="0" d="M209.6,40.2c0-0.2-0.1-0.4-0.1-0.7c-0.1-0.2-0.1-0.5-0.2-0.7
		c0-0.1-0.1-0.1-0.1-0.2c-3-11.8-12.7-21-25-23.4C162.7,10.5,140.4,8,117.5,8C94.6,8,72.4,10.5,51,15.3c-0.3,0-0.5,0.1-0.8,0.2
		c-0.3,0.1-0.5,0.1-0.8,0.2c-0.1,0-0.2,0.1-0.3,0.1c-11.8,3-21,12.4-23.5,24.1c0,0,0,0,0,0C20.6,61,18,83,18,105.5
		c0,22.5,2.6,44.4,7.5,65.5c0,0,0,0,0,0.1c0.1,0.3,0.1,0.6,0.2,0.8c0,0.1,0.1,0.2,0.1,0.3c2.8,11.2,11.7,20,23,23
		c0.1,0,0.2,0.1,0.4,0.1c0.3,0.1,0.5,0.1,0.8,0.2c0.4,0.1,0.8,0.2,1.2,0.3c21.4,4.7,43.6,7.2,66.4,7.2c22.8,0,45.1-2.5,66.4-7.2
		c0.3-0.1,0.7-0.1,1-0.2c0.1,0,0.1,0,0.2,0c0,0,0.1,0,0.1,0c11.8-2.7,21.1-11.7,24-23.1c0-0.1,0.1-0.2,0.1-0.4
		c0.1-0.3,0.1-0.5,0.2-0.8c0-0.1,0-0.2,0.1-0.3c4.9-21,7.4-42.9,7.4-65.4C217,83.1,214.4,61.2,209.6,40.2z M112.5,29.1
		c0-3.2,2-5.9,4.8-7c2.8,1.1,4.8,3.8,4.8,7c0,3.2-2,5.9-4.8,7C114.5,35,112.5,32.3,112.5,29.1z"/>
	<path id="Shape-6-copy-4" fill="#D0975E" d="M209.6,159.8c-0.7,11.5-2.1,23.9-9.9,32.5c-9.1,10.1-24.2,11.9-37.9,12.6
		c-23.5,1.2-47.1,1-70.6-0.4c-17.1-1-35.3-3.2-48.7-13.8c-9.7-7.7-15.8-19.2-19.1-31.1c-3.2-11.9-3.8-24.4-4-36.7
		C19,102.6,19.5,82.2,20.9,62c0.6-9.5,1.6-19.4,6.3-27.7c7.9-14,24.7-20.6,40.7-22.4c14.7-1.6,13.9-0.5,33.4-0.6
		c19.2,0.2,35.4,0.1,54.1,1.3c12.3,0.8,25.4,1.9,35.3,9.1c7.3,5.3,12.1,13.5,14.8,22.1s3.5,17.7,4.1,26.7
		C211.5,100.2,211.5,130.1,209.6,159.8z M115.1,23.8c-2.9,0-5.2,2.3-5.2,5.1s2.3,5.1,5.2,5.1c2.9,0,5.2-2.3,5.2-5.1
		S118,23.8,115.1,23.8z M106.9,11.2c-2.1,0-3.9,0.1-5.7,0.1c-5.6-0.1-11.5-0.1-17.8-0.3L106.9,11.2z"/>
	<path id="Shape-6-copy-3" fill="#E5B16C" d="M213.6,157.8c-0.7,11.5-2.1,23.9-9.9,32.5c-9.1,10.1-24.2,11.9-37.9,12.6
		c-23.5,1.2-47.1,1-70.6-0.4c-17.1-1-35.3-3.2-48.7-13.8c-9.7-7.7-15.8-19.2-19.1-31.1c-3.2-11.9-3.8-24.4-4-36.7
		C23,100.6,23.5,80.2,24.9,60c0.6-9.5,1.6-19.4,6.3-27.7c7.9-14,24.7-20.6,40.7-22.4c14.7-1.6,13.9-0.5,33.4-0.6
		c19.2,0.2,35.4,0.1,54.1,1.3c12.3,0.8,25.4,1.9,35.3,9.1c7.3,5.3,12.1,13.5,14.8,22.1s3.5,17.7,4.1,26.7
		C215.5,98.2,215.5,128.1,213.6,157.8z M119.1,21.8c-2.9,0-5.2,2.3-5.2,5.1s2.3,5.1,5.2,5.1c2.9,0,5.2-2.3,5.2-5.1
		S122,21.8,119.1,21.8z M110.9,9.2c-2.1,0-3.9,0.1-5.7,0.1C99.6,9.2,93.7,9.1,87.4,9L110.9,9.2z"/>
	<path id="texture-copy" fill="#E9B876" d="M23,107.6c0-7.3,0.1-14.7,0.4-22c63.5-2.4,127.7,8.7,191.4,8.7c0.1,2.3,0.1,4.6,0.2,6.9
		C151.2,97.4,87.1,103.1,23,107.6z M147.8,78c-20.7,0-41.5,0.1-62-2.5c-14.6-1.8-29.2-4.9-44-4.3c-6,0.2-12,1.1-18,2.2
		c0.1-1.7,0.2-3.4,0.3-5.2c0.7-0.1,1.4-0.1,2.2-0.2c21.4-1.5,42.7,3.1,63.9,5.8c19.8,2.5,39.7,3.3,59.7,3.3
		c19.6,0,39.1-0.8,58.7-1.6c1.8-0.1,3.6-0.1,5.4-0.2c0,0.9,0.1,1.7,0.1,2.6c-21.4,0-42.8,0.1-64.2,0.1C149.2,78,148.5,78,147.8,78z
		 M85.3,69.5c-20.2-2.4-40.7-5.8-60.9-4.9c0.1-1.3,0.2-2.6,0.2-3.9c0-0.1,0-0.2,0-0.3c0.3,0,0.6-0.1,0.9-0.1
		c62.4-4.6,126.1,9.9,187.8,4.8c0.1,1.4,0.2,2.7,0.3,4.1c0,0.4,0,0.7,0.1,1.1C171,74.8,127.9,74.5,85.3,69.5z M73,42.8
		c-15.3,0-30.6,0-46,0c0.3-1.3,0.7-2.5,1.2-3.8c0.5-1.4,1-2.7,1.7-4c34.4,2.1,68.8,3.5,103.1,1.5c12.6-1.9,25-4.8,37.6-6.4
		c10.5-1.3,21-1.7,31.6-2c1.5,1.9,2.7,4,3.9,6.2c-14.6,1.9-29.3,4.1-43.9,5.5C132.6,42.8,102.8,42.8,73,42.8z M143.4,23.2
		c-12.4-0.1-24.9-0.2-37.3-1.6c-7.3-0.8-14.6-2-21.9-2.3c-10.8-0.4-21.5,1.3-32.2,2.4c-4,0.4-8.1,0.7-12.1,1
		c2.1-1.6,4.3-3.1,6.6-4.4c7.6-4.2,16.5-6.5,25.2-7.5c4.1-0.4,7.1-0.7,9.5-0.8c0.6,0,1.2,0,1.8-0.1c5.4-0.1,9.5,0.3,22.1,0.2
		c16.9,0.2,31.4,0.1,47.4,0.9c-22.9,1.1-45.8,1.2-68.5-1.1l0,0.2c5.7,0.5,11.3,1.3,16.9,2.1c28,3.6,56.3,4.7,84.5,3.5
		c2.8,1,5.4,2.3,7.9,3.9c0.5,0.3,1,0.7,1.5,1c1,0.7,1.9,1.5,2.8,2.3C179.5,23.2,161.5,23.3,143.4,23.2z M110.8,10.2
		c-2.1,0-3.9,0-5.7,0.1c-5.6-0.1-11.5-0.1-17.8-0.3L110.8,10.2z M127.9,127.8c14.5,1.3,29,3.4,43.6,2.8c14.6-0.6,29.1-3.9,43.5-6.8
		c-0.1,3.9-0.1,7.9-0.3,11.8c-62.8,8.3-126.1,11.9-189.7,12.9c-1.1-6.6-1.5-13.2-1.8-19.9C58.2,126.3,93.1,124.7,127.9,127.8z
		 M95.4,161.1c39.3,0,78.6,2,117.9,1.9c-0.3,2.9-0.6,5.9-1.1,8.8c-60.2,2.8-120.8-1.2-181.3-3.3c-0.8-1.8-1.6-3.7-2.2-5.6
		c15.8-0.6,31.7-1.3,47.5-1.6C82.6,161.1,89,161.1,95.4,161.1z M164.1,194.4c12.7,0.3,25.5-1,38.3-2.4c-9.3,8.9-23.6,10.6-36.7,11.2
		c-11.7,0.6-23.3,0.8-35,0.8c-2.3-0.4-4.6-0.8-6.9-1.3c-27.8-5.6-54.9-16.1-83-18.7c-1.6-1.8-3.1-3.7-4.5-5.7
		c28.5,2,56.9,6.3,85.2,11C135.6,191.6,149.8,194.1,164.1,194.4z"/>
	<path id="rope-copy-2" fill="#F4D09E" d="M122.7,19.3c-0.4,1.6-0.9,3.2-1.7,4.6c-0.3,0.4-0.7,1-1.3,1.1c-0.1,0-0.2,0-0.3,0
		c-0.4,0-0.7-0.1-1-0.4c-0.2-0.2-0.3-0.5-0.4-0.8c-0.1,0.3-0.3,0.7-0.7,0.9c-0.2,0.1-0.4,0.2-0.6,0.2c-0.2,0-0.3,0-0.5-0.1
		c-0.5-0.2-1-0.7-1.1-1.2l1.3-0.4c0,0,0.1-0.2,0.1-0.4c0.3-1.3,0.2-2.8,0.1-4.3c-0.3-3.1-0.7-6.3-1.8-9c-0.3-0.6-0.4-0.8-0.5-0.8
		l-1.3,0c0-0.6,0.3-1.2,0.8-1.5c0.4-0.3,0.9-0.3,1.4,0c0.6,0.3,0.9,1,1.2,1.6c1.3,2.9,1.7,6.3,2,9.6c0.1,1.6,0.2,3.3-0.1,4.9
		c0,0,0,0,0,0.1l0.8,0.2c0.1-0.1,0.4-0.4,0.5-0.6c0.7-1.1,1.1-2.6,1.5-4c0.8-3,1.4-6.2,1.2-9.1c0-0.7-0.1-0.8-0.2-0.9l-0.1-0.2
		l-1.1,0c0-0.6,0.4-1.1,0.9-1.3c0.6-0.2,1.2-0.1,1.6,0.4c0.5,0.5,0.6,1.3,0.6,1.9C124.2,12.7,123.5,16.1,122.7,19.3z"/>
	<path id="Birds-Normal" fill="#795A3E" d="M174,82.3l-7.8-6.3c-0.9-3.7-3.8-12.3-12.7-14.9c-7.5-2.1-14.9,0.1-19.4,5.9
		c-4.2,5.4-4.8,12-5.3,17.3c-0.1,0.6-0.1,1.2-0.2,1.9c-18.6,0-33.3,5.7-37.4,7.4l-27.4-3.8c-0.7-0.1-1.5,0-2.2,0.3
		c-0.5,0.2-12.7,5.8-19.8,20.4c-0.6,1.2-0.5,2.6,0.1,3.7c0.7,1.1,1.9,1.9,3.2,2c14.7,0.8,32.6,0.2,39.7-0.1
		c2.1,5.4,7.5,16.6,18.3,22.1c2.7,1.4,5.9,2.4,9.2,3.3l-1,18.1l-1.4-0.3c-2.1-0.4-4.2,1-4.6,3.2c-0.4,2.2,1,4.2,3.2,4.6l1.9,0.3
		c3,0.5,6.4,1.2,14.2,2.4c0.2,0,0.4,0,0.6,0c1.9,0,3.6-1.4,3.9-3.4c0.3-2.2-1.2-4.2-3.3-4.5c-2.7-0.4-4.8-0.7-6.6-1l0.2-2.7l3.2,0.3
		c2.6,0.2,5.5,0.4,10.2,0.8c0.1,0,0.2,0,0.4,0c2,0,3.7-1.5,3.9-3.6c0.2-2.2-1.4-4.1-3.6-4.3c-4.7-0.4-7.7-0.7-10.3-0.9l-3.4-0.3
		l0.4-7.4c2.1,0.2,4.3,0.4,6.4,0.4c8.8,0,25-2.1,34-16.1c5.1-7.9,3.4-18.6,2.8-21.7c-1.2-5.7-1.5-10.7-1.6-13.8l10.6-2.3
		c1.5-0.3,2.7-1.5,3-3C175.7,84.8,175.2,83.2,174,82.3z M156.9,84.5c-1.8,0.4-3,1.9-3.1,3.7c0,0.3-0.2,8.3,1.8,18.6
		c0.9,4.7,1.1,11.6-1.7,15.8c-7,10.9-20.2,12.5-27.4,12.5c-7.1,0-14.6-1.6-19.9-4.3c-11.1-5.6-15.2-20-15.3-20.1
		c-0.5-1.7-2-2.9-3.8-2.9c-0.1,0-0.2,0-0.2,0c-0.2,0-18.5,1.1-35.3,0.6c4.4-6.2,9.7-9.6,11.8-10.8l27.2,3.8c0.7,0.1,1.5,0,2.2-0.3
		c0.2-0.1,17-7.9,38.4-7.1c2,0.1,3.7-1.3,4-3.2c0.3-1.8,0.5-3.8,0.7-5.9c0.4-4.7,0.9-9.6,3.7-13.2c2.6-3.2,6.6-4.4,11-3.1
		c6.2,1.8,7.4,9.9,7.4,10c0.1,1,0.6,1.9,1.4,2.6l2.5,2.1L156.9,84.5z"/>
</g>
</svg>
