<svg version="1.1" xmlns="http://www.w3.org/2000/svg" xmlns:xlink="http://www.w3.org/1999/xlink" width="229" height="225" viewBox="0 0 229 225"><defs><filter id="back-copy-26-fx" filterUnits="userSpaceOnUse"><feFlood flood-color="#061645" flood-opacity="0.270"/><feComposite operator="in" in2="SourceAlpha" /><feOffset dx="-2.99685274732728" dy="7.41747083653432"/><feGaussianBlur stdDeviation="5.9" result="blur" /><feComposite operator="out" in="blur" in2="SourceAlpha" result="maskedShadow"/><feComposite operator="over" in="maskedShadow" in2="SourceGraphic" result="dropShadow"/><feFlood flood-color="#061645" flood-opacity="0.270"/><feComposite operator="out" in2="SourceAlpha"/><feOffset dx="0" dy="0"/><feGaussianBlur stdDeviation="5.9" result="blur" /><feComposite operator="in" in="blur" in2="SourceAlpha" result="maskedShadow"/><feBlend mode="multiply" in="maskedShadow" in2="dropShadow" result="innerShadow"/></filter><filter id="Chicken-Normal-fx" filterUnits="userSpaceOnUse"><feFlood flood-color="#F8F9CD" flood-opacity="0.310"/><feComposite operator="in" in2="SourceAlpha" /><feOffset dx="0.76323598150616" dy="3.92650873379064"/><feGaussianBlur stdDeviation="0.0" result="blur" /><feComposite operator="out" in="blur" in2="SourceAlpha" result="maskedShadow"/><feComposite operator="over" in="maskedShadow" in2="SourceGraphic" result="dropShadow"/><feFlood flood-color="#7E4700" flood-opacity="0.280"/><feComposite operator="out" in2="SourceAlpha"/><feOffset dx="0" dy="6"/><feGaussianBlur stdDeviation="1.5" result="blur" /><feComposite operator="in" in="blur" in2="SourceAlpha" result="maskedShadow"/><feBlend mode="multiply" in="maskedShadow" in2="dropShadow" result="innerShadow"/></filter></defs><g id=""><path id="back-copy-26" d="M209.580,40.250 C209.535,40.026 209.482,39.805 209.433,39.582 C209.377,39.344 209.330,39.102 209.274,38.864 C209.258,38.794 209.215,38.742 209.195,38.675 C206.181,26.868 196.452,17.675 184.190,15.274 C162.737,10.514 140.417,7.992 117.493,7.992 C94.625,7.992 72.363,10.514 50.957,15.253 C50.703,15.301 50.453,15.359 50.201,15.413 C49.935,15.473 49.666,15.523 49.401,15.583 C49.267,15.613 49.174,15.666 49.052,15.703 C37.233,18.707 28.028,28.054 25.504,39.840 C25.501,39.855 25.492,39.867 25.489,39.882 C20.588,60.990 17.997,82.958 17.997,105.520 C17.997,128.022 20.586,149.928 25.461,170.985 C25.466,171.009 25.472,171.034 25.477,171.059 C25.541,171.339 25.597,171.623 25.662,171.903 C25.692,172.028 25.752,172.132 25.790,172.251 C28.612,183.428 37.456,192.248 48.772,195.231 C48.898,195.269 49.002,195.322 49.138,195.353 C49.393,195.411 49.653,195.460 49.909,195.517 C50.313,195.608 50.715,195.700 51.125,195.776 C72.479,200.491 94.684,203.003 117.493,203.003 C140.325,203.003 162.553,200.492 183.927,195.769 C184.272,195.704 184.613,195.628 184.954,195.553 C185.007,195.541 185.062,195.531 185.116,195.518 C185.147,195.512 185.171,195.498 185.202,195.490 C196.975,192.794 206.253,183.818 209.189,172.351 C209.228,172.225 209.288,172.115 209.319,171.982 C209.382,171.716 209.435,171.446 209.496,171.180 C209.516,171.088 209.538,170.997 209.557,170.905 C214.419,149.873 217.004,127.994 217.004,105.520 C217.004,83.087 214.426,61.248 209.580,40.250 zM112.514,29.084 C112.514,25.911 114.505,23.199 117.328,22.066 C120.151,23.199 122.142,25.911 122.142,29.084 C122.142,32.258 120.151,34.970 117.328,36.102 C114.505,34.970 112.514,32.258 112.514,29.084 z" fill="#BF9762" fill-opacity="0.000" filter="url(#back-copy-26-fx)" /><path id="Shape-9-copy-5" d="M207.711,70.039 C205.890,52.699 202.397,33.735 188.838,22.750 C179.770,15.403 167.849,13.061 156.133,11.718 C156.133,11.718 154.860,11.934 154.860,11.934 C125.366,8.530 95.530,8.090 65.948,10.622 C51.550,11.855 36.103,14.306 25.823,24.447 C13.467,36.637 12.413,55.883 12.131,73.225 C11.839,91.232 11.547,109.239 11.255,127.246 C11.045,140.236 10.850,153.383 13.832,166.028 C16.813,178.672 23.354,190.967 34.111,198.273 C44.267,205.170 56.973,206.949 69.207,208.030 C101.536,210.885 134.181,210.158 166.350,205.866 C179.363,204.130 193.469,201.159 201.752,190.987 C208.889,182.224 209.986,170.151 210.467,158.865 C211.730,129.243 210.808,99.527 207.711,70.039 zM111.082,29.046 C108.080,29.046 105.647,26.616 105.647,23.618 C105.647,20.620 108.080,18.190 111.082,18.190 C114.084,18.190 116.518,20.620 116.518,23.618 C116.518,26.616 114.084,29.046 111.082,29.046 z" fill="#D2955A" /><path id="Shape-9-copy-4" d="M211.711,66.039 C209.890,48.699 206.397,29.735 192.838,18.750 C183.770,11.403 171.849,9.061 160.133,7.718 C160.133,7.718 158.860,7.934 158.860,7.934 C129.366,4.530 99.530,4.090 69.948,6.622 C55.550,7.855 40.103,10.306 29.823,20.447 C17.467,32.637 16.413,51.883 16.131,69.225 C15.839,87.232 15.547,105.239 15.255,123.246 C15.045,136.236 14.850,149.383 17.832,162.028 C20.813,174.672 27.354,186.967 38.111,194.273 C48.267,201.170 60.973,202.949 73.207,204.030 C105.536,206.885 138.181,206.158 170.350,201.866 C183.363,200.130 197.469,197.159 205.752,186.987 C212.889,178.224 213.986,166.151 214.467,154.865 C215.730,125.243 214.808,95.527 211.711,66.039 zM115.082,25.046 C112.080,25.046 109.647,22.616 109.647,19.618 C109.647,16.620 112.080,14.190 115.082,14.190 C118.084,14.190 120.518,16.620 120.518,19.618 C120.518,22.616 118.084,25.046 115.082,25.046 z" fill="#E5B26F" /><path id="Shape-10-copy-2" d="M28.578,124.511 C28.578,124.511 28.522,125.288 28.522,125.288 C27.597,125.227 26.667,125.161 25.742,125.082 C26.237,119.965 30.320,115.527 35.230,113.912 C40.346,112.222 46.087,113.270 50.828,115.827 C52.921,116.955 54.902,118.406 56.229,120.382 C57.373,122.090 57.976,124.230 57.626,126.238 C57.140,126.224 56.654,126.215 56.173,126.201 C56.173,126.201 56.210,124.731 56.210,124.731 C52.015,121.856 47.269,119.553 42.200,119.150 C37.136,118.748 31.713,120.499 28.578,124.511 zM128.007,106.932 C114.296,103.121 101.856,95.720 88.425,91.010 C65.245,82.878 39.262,83.435 16.250,91.937 C16.245,92.803 16.236,93.664 16.226,94.530 C32.409,88.234 51.226,88.871 66.871,96.459 C71.874,98.889 76.601,101.997 81.936,103.584 C86.991,105.092 92.830,105.382 96.521,109.165 C98.782,111.482 99.833,114.787 102.127,117.077 C104.173,119.122 107.004,120.157 109.765,121.014 C124.700,125.634 140.307,126.730 156.008,126.482 C156.008,126.482 156.027,127.746 156.027,127.746 C152.916,127.792 149.809,127.825 146.698,127.844 C127.797,127.952 108.896,127.493 90.004,127.029 C86.444,126.940 82.889,126.856 79.330,126.767 C79.330,126.767 79.376,124.824 79.376,124.824 C79.185,116.753 74.303,109.305 67.824,104.511 C61.344,99.722 53.426,97.278 45.508,95.808 C37.160,94.259 28.284,93.753 20.407,96.932 C18.936,97.527 17.525,98.238 16.184,99.048 C16.156,101.918 16.128,104.788 16.096,107.657 C18.917,105.200 22.136,103.201 25.611,101.805 C34.357,98.299 44.573,98.669 53.043,102.803 C61.321,106.847 68.169,115.742 66.366,124.796 C66.366,124.796 66.324,126.449 66.324,126.449 C65.338,126.425 64.357,126.402 63.376,126.379 C63.376,126.379 63.404,125.302 63.404,125.302 C63.320,122.736 62.330,120.279 60.998,118.088 C55.799,109.502 44.938,104.783 35.127,106.843 C26.480,108.664 19.197,115.635 16.689,124.075 C16.423,124.038 16.161,124.000 15.895,123.958 C15.801,131.023 15.694,138.087 15.572,145.151 C45.241,142.577 75.821,147.857 105.855,150.025 C141.888,152.625 178.002,150.653 214.118,148.096 C214.046,150.424 213.966,152.752 213.867,155.079 C213.703,158.928 213.461,162.865 212.942,166.734 C147.829,166.660 82.599,164.316 17.561,161.725 C16.535,157.222 15.899,152.657 15.520,148.059 C14.848,139.894 14.973,131.626 15.105,123.420 C15.397,105.391 15.688,87.361 15.979,69.331 C16.046,65.218 16.158,60.999 16.450,56.791 C16.453,55.902 16.458,55.013 16.460,54.125 C16.527,54.125 16.594,54.125 16.661,54.125 C80.948,54.143 145.234,54.159 209.521,54.175 C210.203,58.172 210.704,62.198 211.117,66.141 C211.475,69.562 211.801,72.987 212.100,76.414 C208.166,76.539 204.230,76.552 200.290,76.385 C186.532,75.804 172.947,73.117 159.227,71.933 C132.174,69.606 104.944,73.150 77.816,72.087 C72.406,71.872 66.978,71.479 61.545,71.025 C46.456,69.761 31.315,68.019 16.409,68.328 C16.404,69.864 16.394,71.399 16.385,72.935 C31.180,71.502 46.218,72.144 61.349,73.426 C64.586,73.698 67.828,74.002 71.070,74.325 C90.653,76.244 110.344,78.716 129.834,78.641 C144.115,78.590 158.503,77.157 172.606,79.414 C181.440,80.823 190.050,83.669 198.972,84.269 C203.572,84.580 208.139,84.286 212.692,83.687 C212.805,85.191 212.916,86.696 213.018,88.202 C210.445,88.656 207.867,89.075 205.279,89.428 C200.098,90.135 194.735,90.575 189.723,89.095 C185.261,87.775 181.351,85.013 176.955,83.496 C165.085,79.400 152.294,84.924 139.793,86.099 C126.493,87.344 113.310,83.590 100.295,80.566 C90.775,78.356 80.881,76.600 70.939,75.659 C52.127,73.871 33.161,74.985 16.334,81.371 C16.324,82.710 16.315,84.049 16.301,85.383 C39.140,76.923 64.717,75.781 88.079,82.747 C101.127,86.642 113.609,92.929 127.147,94.324 C140.765,95.724 154.411,92.054 168.098,92.157 C179.090,92.236 189.947,94.741 200.939,94.975 C205.119,95.064 209.270,94.821 213.403,94.361 C213.568,97.217 213.709,100.074 213.833,102.932 C213.377,102.994 212.920,103.052 212.464,103.116 C184.327,107.086 155.392,114.534 128.007,106.932 zM17.426,47.709 C17.855,44.906 18.417,42.150 19.151,39.476 C55.778,42.584 92.672,39.703 129.455,39.607 C155.257,39.543 181.062,40.862 206.857,42.505 C207.345,44.139 207.782,45.797 208.174,47.473 C191.838,46.130 175.514,44.619 159.134,44.120 C111.929,42.674 64.397,49.621 17.426,47.709 zM22.733,30.063 C24.104,27.371 25.759,24.839 27.758,22.519 C28.268,21.927 28.801,21.348 29.357,20.785 C29.453,20.688 29.543,20.587 29.640,20.491 C30.739,19.403 31.908,18.420 33.119,17.500 C58.051,20.415 83.785,19.070 109.434,18.408 C109.339,18.811 109.283,19.229 109.283,19.661 C109.283,21.391 110.093,22.929 111.350,23.924 C92.645,24.274 73.943,24.771 55.495,23.662 C55.495,23.662 55.467,24.125 55.467,24.125 C97.287,26.550 139.107,28.976 180.926,31.396 C188.289,31.822 195.661,32.246 203.037,32.616 C203.782,34.123 204.457,35.676 205.072,37.264 C193.814,36.766 182.559,36.181 171.303,35.633 C121.801,33.220 72.270,31.585 22.733,30.063 zM118.209,23.807 C119.383,22.810 120.130,21.324 120.130,19.661 C120.130,19.150 120.054,18.658 119.923,18.190 C128.399,18.064 136.852,18.085 145.250,18.437 C163.163,19.193 181.008,21.501 198.535,25.293 C199.329,26.339 200.076,27.421 200.771,28.538 C186.162,26.959 171.533,25.151 156.961,24.317 C144.113,23.583 131.167,23.608 118.209,23.807 zM121.612,7.071 C115.113,6.811 108.665,5.961 102.220,5.064 C116.011,4.899 129.810,5.382 143.557,6.506 C136.234,6.926 128.897,7.366 121.612,7.071 zM112.923,179.289 C127.236,179.925 141.550,180.937 155.873,181.180 C160.750,181.260 165.632,181.255 170.509,181.115 C183.786,180.733 197.007,179.361 210.241,178.183 C209.680,179.690 209.016,181.148 208.258,182.559 C190.812,182.521 173.343,182.171 155.877,181.812 C112.842,180.933 69.828,180.067 27.234,183.957 C26.082,182.354 25.023,180.677 24.053,178.941 C53.682,178.223 83.321,177.964 112.923,179.289 zM165.351,186.344 C178.835,186.320 192.321,186.298 205.805,186.399 C205.594,186.680 205.394,186.967 205.171,187.242 C203.524,189.272 201.638,191.005 199.583,192.509 C193.870,192.334 188.158,192.201 182.445,192.130 C144.194,191.657 105.915,193.511 67.889,197.678 C61.434,198.384 54.936,199.153 48.430,199.769 C44.726,198.459 41.184,196.768 37.909,194.537 C35.413,192.836 33.154,190.855 31.105,188.672 C54.825,186.571 78.777,186.515 102.617,186.466 C123.527,186.428 144.441,186.386 165.351,186.344 zM198.287,193.415 C194.385,196.000 189.929,197.811 185.253,199.142 C173.291,200.286 161.345,201.751 149.407,203.347 C144.358,204.022 139.310,204.721 134.264,205.428 C125.226,205.894 116.175,206.076 107.126,205.983 C121.163,204.761 135.163,203.147 149.127,201.231 C165.564,198.978 181.946,196.311 198.287,193.415 z" fill="#E8B676" /><path id="rope-copy-11" d="M117.935,14.226 C117.612,15.545 117.238,16.924 116.538,18.021 C116.320,18.361 115.972,18.829 115.453,18.964 C115.369,18.985 115.284,18.996 115.198,18.996 C114.908,18.996 114.619,18.875 114.401,18.654 C114.222,18.472 114.120,18.242 114.084,17.998 C113.968,18.282 113.800,18.568 113.521,18.754 C113.368,18.857 113.188,18.909 113.000,18.909 C112.870,18.909 112.735,18.883 112.603,18.833 C112.166,18.665 111.791,18.248 111.669,17.794 C111.669,17.794 112.718,17.501 112.718,17.501 C112.734,17.462 112.781,17.355 112.833,17.145 C113.089,16.098 113.008,14.810 112.902,13.581 C112.680,11.000 112.345,8.302 111.402,6.058 C111.189,5.551 111.051,5.401 111.020,5.379 C111.020,5.379 109.996,5.391 109.996,5.391 C109.995,4.887 110.246,4.377 110.633,4.143 C110.980,3.933 111.397,3.927 111.750,4.125 C112.239,4.400 112.526,4.962 112.741,5.475 C113.765,7.911 114.121,10.748 114.353,13.452 C114.469,14.806 114.557,16.235 114.246,17.503 C114.242,17.519 114.235,17.538 114.231,17.555 C114.231,17.555 114.868,17.699 114.868,17.699 C114.969,17.599 115.208,17.383 115.316,17.214 C115.893,16.309 116.228,15.064 116.521,13.867 C117.138,11.352 117.685,8.689 117.511,6.258 C117.471,5.707 117.395,5.565 117.373,5.535 C117.373,5.535 117.267,5.356 117.267,5.356 C117.267,5.356 116.397,5.321 116.397,5.321 C116.410,4.821 116.698,4.405 117.148,4.236 C117.613,4.062 118.139,4.185 118.458,4.545 C118.832,4.968 118.923,5.594 118.963,6.150 C119.152,8.790 118.581,11.592 117.935,14.226 z" fill="#F4D09E" /><path id="Chicken-Normal" d="M185.802,80.304 C185.802,80.304 176.712,80.731 176.712,80.731 C176.254,82.506 175.545,84.182 174.623,85.707 C173.318,87.869 171.591,89.735 169.556,91.201 C169.544,98.958 168.915,105.677 167.761,111.515 C166.596,117.407 164.894,122.406 162.746,126.635 C161.315,129.453 159.685,131.928 157.898,134.082 C155.514,136.956 152.849,139.255 150.041,141.059 C147.191,142.892 144.201,144.213 141.196,145.162 C141.090,146.571 140.820,147.948 140.402,149.270 C139.852,151.011 139.050,152.656 138.046,154.179 C136.035,157.226 133.231,159.787 129.913,161.790 C127.699,163.125 125.250,164.214 122.627,165.025 C120.602,165.651 118.470,166.105 116.263,166.382 C116.263,166.382 119.364,172.670 119.364,172.670 C119.364,172.670 127.203,172.670 127.203,172.670 C129.231,172.670 130.875,174.326 130.875,176.370 C130.875,178.413 129.231,180.069 127.203,180.069 C127.203,180.069 105.973,180.069 105.973,180.069 C103.945,180.069 102.302,178.413 102.302,176.370 C102.302,174.326 103.945,172.670 105.973,172.670 C105.973,172.670 111.164,172.670 111.164,172.670 C111.164,172.670 108.154,166.565 108.154,166.565 C104.109,166.242 100.293,165.309 96.863,163.869 C92.549,162.052 88.829,159.436 86.083,156.137 C84.255,153.940 82.865,151.428 82.098,148.687 C81.967,148.219 81.857,147.745 81.763,147.266 C80.255,147.042 78.791,146.672 77.394,146.164 C74.986,145.288 72.769,144.015 70.821,142.424 C67.495,139.709 64.948,136.059 63.563,131.866 C60.617,130.879 57.941,129.303 55.674,127.279 C52.862,124.768 50.673,121.564 49.369,117.923 C48.499,115.497 48.026,112.876 48.026,110.159 C48.026,109.272 48.059,108.414 48.119,107.579 C47.087,106.118 46.261,104.548 45.641,102.920 C44.690,100.426 44.216,97.797 44.216,95.184 C44.216,92.067 44.890,88.961 46.288,86.148 C47.682,83.338 49.825,80.823 52.662,79.014 C53.374,78.559 54.128,78.149 54.921,77.789 C54.729,76.924 54.634,76.053 54.635,75.197 C54.635,73.866 54.852,72.573 55.226,71.351 C55.600,70.128 56.128,68.973 56.766,67.888 C58.045,65.720 59.751,63.824 61.687,62.221 C62.979,61.153 64.377,60.218 65.840,59.441 C67.792,58.407 69.860,57.647 71.986,57.283 C72.994,57.111 74.035,57.374 74.844,58.005 C75.652,58.635 76.167,59.585 76.255,60.611 C76.945,68.639 77.697,76.691 79.188,84.392 C79.489,85.949 79.822,87.489 80.188,89.013 C82.190,89.301 84.190,89.652 86.162,90.039 C91.179,91.026 96.021,92.236 100.166,93.164 C102.924,93.783 105.379,94.274 107.276,94.499 C109.662,94.785 111.979,95.010 114.182,95.010 C115.617,95.010 117.003,94.915 118.337,94.692 C120.874,94.268 123.901,93.511 126.893,92.453 C129.885,91.397 132.848,90.033 135.274,88.461 C136.893,87.416 138.268,86.280 139.277,85.139 C139.855,84.488 140.315,83.837 140.657,83.201 C140.900,82.749 141.078,82.307 141.210,81.865 C140.748,80.453 140.447,78.965 140.332,77.427 C138.058,77.298 135.926,76.546 134.148,75.333 C132.185,73.996 130.630,72.111 129.692,69.880 C129.068,68.394 128.723,66.754 128.724,65.052 C128.722,62.496 129.501,60.090 130.828,58.115 C132.154,56.137 134.026,54.570 136.240,53.626 C136.907,53.341 137.607,53.118 138.328,52.955 C138.882,51.529 139.656,50.215 140.608,49.062 C142.153,47.190 144.167,45.725 146.478,44.849 C148.018,44.266 149.691,43.947 151.421,43.948 C152.678,43.947 153.901,44.117 155.065,44.432 C155.985,43.853 156.967,43.362 158.002,42.978 C159.729,42.337 161.599,41.987 163.534,41.987 C166.837,41.986 169.936,43.006 172.486,44.744 C175.039,46.483 177.064,48.938 178.282,51.837 C179.093,53.769 179.541,55.900 179.541,58.117 C179.543,61.445 178.530,64.568 176.805,67.138 C176.481,67.622 176.123,68.080 175.750,68.524 C175.785,68.602 175.821,68.679 175.854,68.757 C176.455,70.190 176.882,71.717 177.113,73.305 C177.113,73.305 185.460,72.912 185.460,72.912 C187.486,72.817 189.204,74.395 189.298,76.436 C189.393,78.477 187.827,80.209 185.802,80.304 zM71.981,85.808 C70.703,79.199 69.960,72.512 69.355,65.940 C68.901,66.177 68.450,66.439 68.008,66.724 C66.278,67.837 64.709,69.300 63.641,70.804 C62.925,71.804 62.434,72.815 62.187,73.725 C62.044,74.247 61.978,74.736 61.978,75.197 C61.978,75.659 62.042,76.094 62.182,76.537 C62.322,76.980 62.538,77.434 62.879,77.924 C63.593,78.946 63.747,80.263 63.289,81.423 C62.830,82.584 61.820,83.434 60.605,83.681 C59.415,83.923 58.378,84.295 57.465,84.763 C56.553,85.232 55.763,85.798 55.074,86.447 C53.701,87.742 52.719,89.384 52.140,91.249 C51.756,92.490 51.558,93.825 51.559,95.184 C51.558,95.628 51.582,96.075 51.624,96.521 C52.071,95.865 52.552,95.245 53.073,94.673 C54.170,93.464 55.419,92.450 56.761,91.626 C58.551,90.525 60.499,89.757 62.522,89.236 C65.221,88.543 68.061,88.280 70.968,88.279 C71.474,88.279 71.984,88.293 72.495,88.308 C72.315,87.476 72.142,86.643 71.981,85.808 zM139.365,94.607 C137.868,95.585 136.280,96.457 134.649,97.238 C132.475,98.279 130.222,99.158 128.002,99.885 C125.040,100.855 122.139,101.556 119.541,101.991 C117.726,102.295 115.934,102.409 114.182,102.409 C111.491,102.408 108.891,102.142 106.411,101.847 C104.640,101.634 102.724,101.278 100.669,100.845 C98.615,100.411 96.428,99.900 94.155,99.370 C89.612,98.312 84.718,97.184 79.994,96.461 C76.846,95.978 73.775,95.678 70.968,95.678 C68.894,95.678 66.966,95.842 65.262,96.193 C63.555,96.542 62.081,97.074 60.856,97.781 C60.037,98.253 59.324,98.801 58.695,99.449 C57.859,100.315 57.157,101.362 56.595,102.732 C55.850,104.554 55.369,106.976 55.369,110.159 C55.370,112.012 55.690,113.774 56.275,115.411 C56.861,117.048 57.715,118.558 58.785,119.889 C60.926,122.551 63.923,124.481 67.342,125.255 C68.724,125.568 69.807,126.660 70.118,128.053 C70.695,130.638 71.915,132.980 73.606,134.903 C75.296,136.825 77.452,138.319 79.887,139.204 C81.511,139.794 83.260,140.117 85.099,140.117 C86.065,140.117 87.011,140.512 87.695,141.201 C88.378,141.890 88.770,142.843 88.770,143.817 C88.770,144.918 88.940,145.982 89.269,147.026 C89.598,148.069 90.090,149.092 90.744,150.084 C92.049,152.067 94.019,153.927 96.532,155.441 C98.206,156.451 100.115,157.306 102.201,157.951 C104.981,158.811 108.074,159.295 111.337,159.295 C115.619,159.296 119.610,158.459 122.984,157.040 C126.362,155.623 129.107,153.623 130.962,151.385 C132.203,149.893 133.053,148.306 133.509,146.678 C133.769,145.745 133.904,144.796 133.904,143.817 C133.904,143.454 133.885,143.096 133.848,142.740 C133.658,140.896 134.852,139.194 136.640,138.760 C139.441,138.080 142.153,137.087 144.696,135.660 C147.239,134.231 149.619,132.373 151.786,129.897 C153.231,128.245 154.581,126.314 155.806,124.036 C157.440,120.999 158.850,117.342 159.929,112.927 C161.369,107.043 162.215,99.812 162.214,90.982 C162.214,90.397 162.205,89.838 162.188,89.300 C162.144,87.896 162.883,86.599 164.108,85.929 C165.851,84.978 167.322,83.565 168.349,81.862 C169.377,80.156 169.966,78.174 169.968,76.022 C169.966,73.677 169.267,71.530 168.061,69.728 C166.855,67.929 165.142,66.496 163.141,65.644 C161.806,65.076 160.345,64.761 158.793,64.761 C156.466,64.762 154.335,65.467 152.547,66.682 C150.762,67.897 149.340,69.624 148.495,71.639 C147.931,72.985 147.618,74.457 147.618,76.022 C147.618,77.520 147.908,78.934 148.431,80.243 C148.679,80.860 148.757,81.541 148.655,82.200 C148.443,83.569 148.020,84.870 147.446,86.072 C146.871,87.276 146.145,88.383 145.319,89.402 C143.662,91.441 141.610,93.140 139.365,94.607 zM170.720,53.239 C169.785,51.843 168.455,50.731 166.906,50.071 C165.871,49.631 164.741,49.387 163.534,49.387 C162.473,49.387 161.472,49.576 160.541,49.921 C159.611,50.267 158.753,50.770 158.001,51.400 C156.921,52.306 155.439,52.511 154.156,51.934 C153.317,51.557 152.403,51.348 151.421,51.347 C150.581,51.347 149.793,51.500 149.061,51.776 C148.330,52.053 147.656,52.456 147.068,52.962 C145.890,53.975 145.068,55.381 144.801,56.972 C144.498,58.767 142.939,60.076 141.133,60.053 C141.076,60.052 141.041,60.051 141.016,60.050 C139.981,60.054 139.051,60.364 138.258,60.901 C137.464,61.441 136.829,62.213 136.455,63.106 C136.206,63.702 136.067,64.351 136.067,65.052 C136.068,66.100 136.377,67.043 136.913,67.846 C137.448,68.646 138.214,69.285 139.100,69.662 C139.692,69.914 140.336,70.054 141.031,70.054 C141.105,70.054 141.177,70.048 141.249,70.045 C141.784,68.451 142.524,66.951 143.440,65.586 C145.436,62.610 148.255,60.249 151.584,58.830 C153.801,57.884 156.246,57.361 158.793,57.362 C162.615,57.360 166.198,58.539 169.149,60.550 C169.873,61.043 170.559,61.587 171.205,62.175 C171.318,61.959 171.424,61.740 171.519,61.514 C171.955,60.472 172.197,59.333 172.198,58.117 C172.196,56.296 171.655,54.636 170.720,53.239 zM145.690,106.297 C147.535,105.450 149.712,106.271 150.553,108.131 C151.307,109.802 151.661,111.587 151.661,113.357 C151.661,114.656 151.470,115.950 151.089,117.198 C150.708,118.446 150.135,119.648 149.362,120.747 C148.777,121.578 148.085,122.438 147.290,123.276 C146.494,124.112 145.596,124.926 144.573,125.644 C143.891,126.122 143.151,126.557 142.337,126.912 C141.255,127.382 140.021,127.715 138.668,127.716 C138.428,127.716 138.184,127.705 137.939,127.683 C135.919,127.498 134.431,125.699 134.614,123.664 C134.797,121.629 136.582,120.129 138.602,120.314 C138.602,120.314 138.668,120.317 138.668,120.317 C138.769,120.317 138.934,120.297 139.171,120.218 C139.407,120.139 139.708,119.999 140.040,119.794 C140.706,119.387 141.480,118.718 142.159,117.973 C142.614,117.478 143.032,116.951 143.373,116.466 C143.670,116.044 143.909,115.553 144.071,115.021 C144.233,114.490 144.319,113.920 144.318,113.357 C144.319,112.587 144.160,111.838 143.870,111.197 C143.030,109.337 143.845,107.143 145.690,106.297 zM119.445,140.587 C117.953,141.882 116.304,142.885 114.587,143.601 C112.296,144.556 109.886,145.006 107.514,145.006 C105.068,145.006 102.658,144.530 100.426,143.611 C98.196,142.692 96.139,141.325 94.445,139.522 C93.317,138.321 92.355,136.926 91.629,135.364 C91.052,134.127 90.632,132.784 90.384,131.367 C89.548,131.255 88.741,131.047 87.974,130.767 C86.794,130.336 85.700,129.741 84.678,129.041 C82.637,127.637 80.867,125.816 79.341,123.798 C78.326,122.452 77.426,121.014 76.659,119.537 C75.639,117.564 74.852,115.525 74.393,113.486 C74.132,112.321 73.978,111.152 73.977,109.975 C73.977,109.581 73.995,109.185 74.034,108.788 C74.203,107.076 75.528,105.703 77.221,105.485 C78.757,105.287 80.235,105.197 81.660,105.197 C83.938,105.197 86.079,105.426 88.119,105.785 C90.160,106.145 92.098,106.633 93.995,107.155 C97.793,108.203 101.423,109.371 105.524,110.130 C108.260,110.636 111.211,110.970 114.591,110.971 C116.684,110.971 118.943,110.841 121.412,110.539 C121.412,110.539 121.410,110.540 121.410,110.540 C121.600,110.516 121.802,110.502 122.020,110.502 C122.529,110.501 123.120,110.586 123.702,110.819 C124.283,111.046 124.829,111.423 125.233,111.842 C125.504,112.121 125.719,112.413 125.887,112.693 C126.111,113.067 126.256,113.417 126.364,113.736 C126.505,114.163 126.581,114.538 126.635,114.889 C126.705,115.356 126.735,115.782 126.754,116.207 C126.777,116.771 126.777,117.330 126.778,117.912 C126.778,118.048 126.778,118.186 126.778,118.327 C126.778,118.969 126.780,119.638 126.803,120.336 C126.803,120.336 126.803,120.337 126.803,120.337 C126.817,120.779 126.824,121.214 126.824,121.644 C126.824,125.941 126.126,129.686 124.842,132.867 C123.562,136.045 121.686,138.646 119.445,140.587 zM119.464,120.574 C119.464,120.574 119.464,120.576 119.464,120.576 C119.437,119.743 119.435,118.986 119.435,118.327 C119.435,118.272 119.435,118.221 119.435,118.167 C117.749,118.301 116.131,118.370 114.591,118.370 C110.245,118.371 106.446,117.879 103.048,117.183 C99.648,116.487 96.652,115.596 93.879,114.805 C92.030,114.276 90.280,113.791 88.563,113.414 C86.301,112.917 84.102,112.606 81.748,112.598 C81.889,113.092 82.061,113.609 82.269,114.139 C82.908,115.771 83.858,117.504 84.974,119.033 C85.716,120.053 86.531,120.983 87.354,121.747 C88.449,122.771 89.559,123.477 90.450,123.801 C90.961,123.990 91.391,124.062 91.750,124.062 C92.048,124.061 92.303,124.017 92.578,123.918 C93.743,123.493 95.047,123.690 96.037,124.441 C97.027,125.193 97.575,126.400 97.491,127.647 C97.475,127.895 97.467,128.140 97.467,128.381 C97.470,130.060 97.848,131.438 98.480,132.629 C99.113,133.816 100.020,134.823 101.147,135.629 C101.898,136.165 102.745,136.608 103.654,136.936 C104.866,137.374 106.186,137.608 107.514,137.607 C109.146,137.607 110.783,137.258 112.283,136.538 C113.785,135.815 115.159,134.733 116.325,133.172 C117.101,132.130 117.784,130.869 118.320,129.334 C119.033,127.288 119.481,124.749 119.481,121.644 C119.481,121.294 119.475,120.937 119.464,120.574 zM162.637,72.356 C164.140,73.705 164.273,76.028 162.934,77.543 C161.594,79.058 159.289,79.192 157.786,77.843 C156.282,76.493 156.149,74.170 157.489,72.655 C158.828,71.140 161.133,71.006 162.637,72.356 z" fill="#795A3E" filter="url(#Chicken-Normal-fx)" /></g></svg>