<?xml version="1.0" encoding="utf-8"?>
<!-- Generator: Adobe Illustrator 24.2.1, SVG Export Plug-In . SVG Version: 6.00 Build 0)  -->
<svg version="1.1" id="Layer_1" xmlns="http://www.w3.org/2000/svg" xmlns:xlink="http://www.w3.org/1999/xlink" x="0px" y="0px"
	 viewBox="0 0 229 225" enable-background="new 0 0 229 225" xml:space="preserve">
<g>
	<path id="back-copy-10" fill="#BF9762" fill-opacity="0" d="M209.6,40.2c0-0.2-0.1-0.4-0.1-0.7c-0.1-0.2-0.1-0.5-0.2-0.7
		c0-0.1-0.1-0.1-0.1-0.2c-3-11.8-12.7-21-25-23.4C162.7,10.5,140.4,8,117.5,8C94.6,8,72.4,10.5,51,15.3c-0.3,0-0.5,0.1-0.8,0.2
		c-0.3,0.1-0.5,0.1-0.8,0.2c-0.1,0-0.2,0.1-0.3,0.1c-11.8,3-21,12.4-23.5,24.1c0,0,0,0,0,0C20.6,61,18,83,18,105.5
		c0,22.5,2.6,44.4,7.5,65.5c0,0,0,0,0,0.1c0.1,0.3,0.1,0.6,0.2,0.8c0,0.1,0.1,0.2,0.1,0.3c2.8,11.2,11.7,20,23,23
		c0.1,0,0.2,0.1,0.4,0.1c0.3,0.1,0.5,0.1,0.8,0.2c0.4,0.1,0.8,0.2,1.2,0.3c21.4,4.7,43.6,7.2,66.4,7.2c22.8,0,45.1-2.5,66.4-7.2
		c0.3-0.1,0.7-0.1,1-0.2c0.1,0,0.1,0,0.2,0c0,0,0.1,0,0.1,0c11.8-2.7,21.1-11.7,24-23.1c0-0.1,0.1-0.2,0.1-0.4
		c0.1-0.3,0.1-0.5,0.2-0.8c0-0.1,0-0.2,0.1-0.3c4.9-21,7.4-42.9,7.4-65.4C217,83.1,214.4,61.2,209.6,40.2z M112.5,29.1
		c0-3.2,2-5.9,4.8-7c2.8,1.1,4.8,3.8,4.8,7c0,3.2-2,5.9-4.8,7C114.5,35,112.5,32.3,112.5,29.1z"/>
	<path id="Shape-11-copy" fill="#D19154" d="M207.8,69.5c-0.4-15.5-0.4-30.4-11.8-40.9c-7.9-7.2-19.1-9.3-29.7-10.6
		c-25.6-3.2-49.7-1.6-73.3-1.6h-0.4c-10.8-0.2-19.4-0.5-28.8,0.8c-13.8,1.9-27.6,7.7-36.1,18.6c-9.8,12.5-11.3,29.6-11.5,45.5
		c-0.3,21.4,1,42.9,3.8,64.2c2.2,16.7,6.1,34.6,18.8,45.6c11.2,9.8,26.9,12.1,41.7,13.4c28.1,2.4,49.7,1.4,77.8-0.9
		c12.8-1.1,26.6-3.1,35.4-12.5c9.5-10,10.3-24.7,11.2-38.5C206.8,123.8,208.6,99,207.8,69.5z M112.1,35.1c-2.9,0-5.2-2.3-5.2-5.2
		s2.3-5.2,5.2-5.2s5.2,2.3,5.2,5.2S115,35.1,112.1,35.1z"/>
	<path id="Shape-11" fill="#ECBB7A" d="M210.8,64.5c-0.4-15.5-0.4-30.4-11.8-40.9c-7.9-7.2-19.1-9.3-29.7-10.6
		c-25.6-3.2-49.7-1.6-73.3-1.6h-0.4c-10.8-0.2-19.4-0.5-28.8,0.8c-13.8,1.9-27.6,7.7-36.1,18.6c-9.8,12.5-11.3,29.6-11.5,45.5
		c-0.3,21.4,1,42.9,3.8,64.2c2.2,16.7,6.1,34.6,18.8,45.6c11.2,9.8,26.9,12.1,41.7,13.4c28.1,2.4,49.7,1.4,77.8-0.9
		c12.8-1.1,26.6-3.1,35.4-12.5c9.5-10,10.3-24.7,11.2-38.5C209.8,118.8,211.6,94,210.8,64.5z M115.1,30.1c-2.9,0-5.2-2.3-5.2-5.2
		s2.3-5.2,5.2-5.2s5.2,2.3,5.2,5.2S118,30.1,115.1,30.1z"/>
	<path id="Shape-12" fill="#EBB671" d="M143.1,65c-13.1,0.1-26.2,0.2-39.4,0.3C86,65.3,68.2,65.4,50.4,65
		c-10.3-0.2-20.6-0.6-30.8-1.1c0.1-1.5,0.3-2.9,0.4-4.3c13.2,0.7,26.4,1.2,39.6,1.1c12.6,0,25.2-0.5,37.8-1.9
		c10.7-1.1,21.4-2.8,32.2-2.4c7.3,0.3,14.6,1.5,21.9,2.4c12.4,1.4,24.8,1.5,37.3,1.6c7.3,0,14.5,0,21.8,0c0,1.3,0.1,2.7,0.1,4.1
		c-9.4,0.1-18.9,0.2-28.3,0.2C169.2,64.8,156.2,64.9,143.1,65z M116.6,50.7c-8.2,0.4-16.2,2.9-24.3,4.6c-10.8,2.3-21.7,3.1-32.7,3.1
		c-10.9,0-21.8-0.8-32.7-1.9c-2.1-0.2-4.2-0.4-6.3-0.7c0.1-0.8,0.3-1.6,0.4-2.4c2,0.4,4.1,0.8,6.1,1c4.1,0.4,8.1-0.1,11-2.7
		c1-0.9,1.9-2.1,3.2-2.6c1-0.4,2-0.5,3-0.3c1.7,0.3,3.4,1.3,4.9,2.2c18.9,10.1,41.6-1.9,63-4c5.7-0.5,11.5-0.3,17.2,0.2l0-0.2
		c26.7,2.7,53.6,2.1,80.4,0.4c0.2,1.9,0.4,3.9,0.5,5.9c0.1,1.3,0.1,2.6,0.2,3.9c-24.8-0.1-49.6-1.8-74.1-5.1
		C129.8,51.4,123.2,50.4,116.6,50.7z M148.8,42.8c-22.3-1.6-44.5-3.2-66.8-4.8c-4.9-0.4-9.9-0.7-14.9-0.9c-1.8-0.1-3.7-0.1-5.5-0.1
		c-7.2-0.1-14.4,0.3-21.5,1.6c-5.2,1-10.3,2.4-15.5,2.8c1.5-3.7,3.5-7.2,6-10.4c5-6.3,11.7-10.9,19.1-14.1
		c20.4-0.4,40.8-0.6,61.1-0.1c27.8,0.7,55.9,2.7,83.8,3.7c1.5,1,3,2,4.3,3.3c6.5,6,9.3,13.3,10.5,21.4
		C189.2,45.6,168.9,44.2,148.8,42.8z M114.9,19.7c-2.9,0-5.2,2.3-5.2,5.2c0,2.9,2.3,5.2,5.2,5.2c2.9,0,5.2-2.3,5.2-5.2
		C120,22,117.7,19.7,114.9,19.7z M178.4,73.9c-1.6,0.2-3.2,0.5-4.8,0.7C155.5,77,137.2,77,119,76.9c-24.9-0.1-49.9-0.2-74.7-1.7
		c-8.4-0.5-16.8-1.2-25.2-1.9c0-1.5,0.1-3,0.2-4.5C72.3,72,125.4,77.1,178.4,73.9z M207.5,77.3c1.1-0.1,2.2-0.2,3.2-0.3
		c0,9.2-0.2,18-0.5,26.7c-46.2-1.8-93.1-9-139.3-5.6c-17.2,1.3-34.3,4-51.5,3.3C19.1,94.4,19,87.3,19,80.2c33.1,0,66.3,0,99.4,0
		C148.1,80.3,177.9,80.3,207.5,77.3z M57,103.6c24.4-3.6,49.1,0.8,73.6,3.7c26.3,3.1,52.8,4.4,79.2,3.9c-0.1,1.2-0.1,2.4-0.2,3.7
		c0,0.3,0,0.7-0.1,1c-0.3,4.8-0.6,9.7-0.9,14.6c-59.6-4-119.3-11.9-178.3-3.6c-3,0.4-6.1,0.9-9.2,1.4c-0.3-3.1-0.6-6.1-0.9-9.2
		c22.5,0.2,44.2-9.3,66.7-10.2c14.7-0.6,29.3,2.6,44,4.4c20.5,2.6,41.3,2.5,62,2.5c0.7,0,1.4,0,2.1,0v-0.9c-20,0-39.9-0.8-59.6-3.4
		c-21.3-2.7-42.5-7.4-63.9-5.9c-16.2,1.2-31.9,5.9-48,8.1c-1.2,0.2-2.4,0.3-3.5,0.4c-0.1-1.7-0.3-3.5-0.4-5.2
		C32.3,109.4,44.6,105.4,57,103.6z M207.7,147.8c-0.5,7.2-0.9,14.6-2.6,21.5c-10.6-0.4-21.2-1.9-31.8-2.8
		c-47.6-4.3-95.4,0.2-143.2,3.6c-2.9-6.6-4.7-14-6-21.3c61.5-3.3,123-10,184.3-10.5C208.1,141.4,207.9,144.6,207.7,147.8z
		 M196.5,186.3c-6.1,6.4-14.5,9.4-23.4,11c-10.8,0.2-21.5,0.3-32.3,0.3c-8.2,0-16.5-0.1-24.7-0.2c-17.6-0.3-35.3-1-52.9-0.7
		c-7.2-1.8-14.1-4.5-19.9-9c52.5-0.2,105-2,157.2-6.7C199.3,182.9,198,184.7,196.5,186.3z"/>
	<path id="rope-copy-7" fill="#F4D09E" d="M117.9,20.2c-0.3,1.3-0.7,2.7-1.4,3.8c-0.2,0.3-0.6,0.8-1.1,0.9c-0.1,0-0.2,0-0.3,0
		c-0.3,0-0.6-0.1-0.8-0.3c-0.2-0.2-0.3-0.4-0.3-0.7c-0.1,0.3-0.3,0.6-0.6,0.8c-0.2,0.1-0.3,0.2-0.5,0.2c-0.1,0-0.3,0-0.4-0.1
		c-0.4-0.2-0.8-0.6-0.9-1l1-0.3c0,0,0.1-0.1,0.1-0.4c0.3-1,0.2-2.3,0.1-3.6c-0.2-2.6-0.6-5.3-1.5-7.5c-0.2-0.5-0.4-0.7-0.4-0.7l-1,0
		c0-0.5,0.2-1,0.6-1.2c0.3-0.2,0.8-0.2,1.1,0c0.5,0.3,0.8,0.8,1,1.4c1,2.4,1.4,5.3,1.6,8c0.1,1.4,0.2,2.8-0.1,4.1c0,0,0,0,0,0.1
		l0.6,0.1c0.1-0.1,0.3-0.3,0.4-0.5c0.6-0.9,0.9-2.2,1.2-3.3c0.6-2.5,1.2-5.2,1-7.6c0-0.6-0.1-0.7-0.1-0.7l-0.1-0.2l-0.9,0
		c0-0.5,0.3-0.9,0.8-1.1c0.5-0.2,1-0.1,1.3,0.3c0.4,0.4,0.5,1,0.5,1.6C119.2,14.8,118.6,17.6,117.9,20.2z"/>
	<path id="Whales-Normal" fill="#795A3E" d="M115.5,129.5l-1.4-0.4c-2.1-0.6-4.3,0.6-4.9,2.7c-0.6,2.1,0.6,4.3,2.7,4.9l1.4,0.4
		c0.4,0.1,0.7,0.2,1.1,0.2c1.7,0,3.3-1.1,3.8-2.9C118.8,132.3,117.6,130.1,115.5,129.5z M178.5,70c-0.4-1.7-1.8-3-3.6-3.1
		c-1.9-0.2-3.4,0.9-4,2.5c0,0-1.1,1.9-7.9,3.4c-4.3,1-7.1,3.1-8.9,5.4c-2.4-1.4-5.6-2.1-9.8-1.2c-6.7,1.5-8.5,0.3-8.5,0.3
		c-1.3-1.2-3.2-1.4-4.7-0.6c-1.5,0.9-2.3,2.6-1.9,4.3c1.1,4.9,2.9,13.2,13.2,16.3c2.2,0.7,4.4,0.9,6.5,0.9c0.8,0,1.6-0.1,2.3-0.1
		c-1.3,5.6-5,14-16.2,14h-0.2c-5.5-0.1-11.3-1.2-17.5-2.4c-4.9-1-10-1.9-15.5-2.6c-19-2.2-32.4,2.1-35.6,11.3
		c-3,8.4-5.3,16.5-5.3,16.5c-0.2,0.8-0.2,1.7,0.1,2.4c0.1,0.3,11.4,30.8,44.5,30.8c0.5,0,1.1,0,1.7,0c7.4-0.2,14.2-1.9,22.6-5.4
		c3,1.4,6.2,2.2,9.4,2.2c3.7,0,7.4-0.9,11-2.8c1.2-0.6,2-1.8,2.1-3.1c0.1-1.3-0.4-2.6-1.4-3.5c-2-1.6-3.7-3.5-4.9-5.1
		c15.2-13,21.9-33,18.2-55c2.9-0.9,6.5-2.5,9.3-5.1C181.4,83.2,179.6,74.9,178.5,70z M106.8,160.1c-21.2,0.7-31.9-13.3-36.1-20.9
		c5.4-0.7,15.4-1.4,23.8,1.4c12.9,4.5,19.3,9.9,24.9,14.6c0.8,0.7,1.6,1.2,2.4,1.9C116.4,159.1,111.8,160,106.8,160.1z M138.8,146.1
		c-0.2,0.1-0.4,0.1-0.6,0.3c-1.8,1.2-2.3,3.6-1.1,5.5c0.1,0.1,1.5,2.4,3.9,5c-3.7,0.5-7.4-0.5-10.9-3.1c-1.9-1.4-3.7-2.9-5.5-4.4
		c-5.8-4.9-13.1-11.1-27.4-16.1c-9.6-3.3-20.6-2.7-26.9-1.9c0.9-2.9,2.1-6.6,3.4-10.4c1.5-4.4,10.6-7.9,27.3-6
		c5.3,0.6,10.2,1.6,14.9,2.5c6.6,1.3,12.7,2.5,18.9,2.6h0.4c12.2,0,18.8-7.1,22-14.6C157.5,122,151.1,136.7,138.8,146.1z
		 M168.1,84.5c-3.1,2.8-8.6,4.1-10.4,4.4c-0.3,0-0.6,0.2-0.8,0.3c-0.3,0-0.6,0-0.9,0.1c-1.8,0.5-7.3,1.6-11.3,0.5
		c-2.8-0.8-4.4-2.2-5.6-4.1c2.1,0,4.4-0.3,7-0.9c4-0.9,5.2,1,5.5,1.6c0.6,1.3,1.8,2.2,3.1,2.3c0,0,0.1,0,0.1,0c0,0,0,0,0.1,0
		c0.3,0,0.6,0,0.9-0.1c0.3,0,0.6,0,0.8-0.1c0,0,0,0,0,0c0,0,0.1,0,0.1-0.1c1.3-0.5,2.3-1.6,2.5-3.1c0,0,0.6-3.7,5.6-4.8
		c2.6-0.6,4.8-1.3,6.7-2.1C171.2,80.6,170.3,82.5,168.1,84.5z M70.4,93c2.1,0.7,4.3-0.4,5-2.4c0,0,1-2.6,4.4-2.6
		c4.1,0.2,4.9,4.4,4.9,7.9v3.1c0,2.2,1.8,4,4,4c2.2,0,4-1.8,4-4v-3.1c0-0.4-0.1-0.8-0.1-1.1c0-0.1,0.1-0.2,0.1-0.4V71.7
		c0-7.6-4.3-12.7-10.9-13c-6.3-0.5-9.6,4.2-10.5,6.6c-0.7,2,0.3,4.2,2.3,5c2,0.8,4.3-0.2,5.1-2.2c0.2-0.5,0.8-1.6,2.7-1.5
		c2.3,0.1,3.4,1.8,3.4,5.1v9.5c-1.4-0.6-2.9-1-4.5-1.1c-7.3-0.4-11.2,5-12.3,7.9C67.2,90,68.3,92.3,70.4,93z M97.9,103
		c2.2,0,4-1.8,4-4V84.7c0-5.9,1.9-9,5.8-9.2c3.9,0.1,5.3,2.7,5.6,3.2c0.8,2.1,3.1,3.1,5.1,2.3c2-0.8,3.1-3.1,2.3-5.1
		c-1.2-3.3-5.4-8.8-13.4-8.3c-8.2,0.4-13.3,7-13.3,17.1V99C94,101.2,95.7,103,97.9,103z"/>
</g>
</svg>
